<svg width="55" height="54" viewBox="0 0 55 54" fill="none" xmlns="http://www.w3.org/2000/svg">
<path d="M46 6.5C47.933 6.5 49.5 8.067 49.5 10V44C49.5 45.933 47.933 47.5 46 47.5H9.5V6.5H46Z" fill="#F2F1EE" fill-opacity="0.99" stroke="#474455"/>
<line x1="17.5" y1="47" x2="17.5" y2="6" stroke="#474455"/>
<rect x="6" y="11" width="7" height="5" fill="#F2F1EE" fill-opacity="0.99" stroke="#474455" stroke-width="2"/>
<rect x="6" y="20" width="7" height="5" fill="#F2F1EE" fill-opacity="0.99" stroke="#474455" stroke-width="2"/>
<rect x="6" y="29" width="7" height="5" fill="#F2F1EE" fill-opacity="0.99" stroke="#474455" stroke-width="2"/>
<rect x="6" y="38" width="7" height="5" fill="#F2F1EE" fill-opacity="0.99" stroke="#474455" stroke-width="2"/>
<path d="M30.7276 35.2818L32.8849 33.9639V38.9512H29.166L30.7276 35.2818Z" fill="#474455"/>
<path d="M32.2793 34.8467L30.7206 35.6409L27.6915 33.9708L28.3813 32.6756L32.2793 34.8467Z" fill="#474455"/>
<path d="M30.8845 32.2057C30.5875 31.5155 31.3712 31.1371 31.6945 31.7484C32.0177 32.3598 32.8947 33.9649 32.8947 33.9649L31.6498 34.7957C31.6498 34.7957 31.1815 32.8959 30.8845 32.2057Z" fill="#474455"/>
<path d="M29.0754 33.3697L27.693 33.9479C27.693 33.9479 27.3032 30.644 27.3022 30.2457C27.3006 29.6244 28.2506 30.585 28.4273 31.1814L29.0754 33.3697Z" fill="#474455"/>
<path d="M37.1747 35.3106L35.0174 33.9854V39.0001H38.7363L37.1747 35.3106Z" fill="#474455"/>
<path d="M35.6221 34.8711L37.1808 35.6697L40.2099 33.9904L39.5201 32.6881L35.6221 34.8711Z" fill="#474455"/>
<path d="M37.0179 32.2192C37.3148 31.5252 36.5311 31.1447 36.2079 31.7594C35.8846 32.3741 35.0077 33.988 35.0077 33.988L36.2525 34.8234C36.2525 34.8234 36.7209 32.9132 37.0179 32.2192Z" fill="#474455"/>
<path d="M38.827 33.3887L40.2093 33.9701C40.2093 33.9701 40.5991 30.648 40.6002 30.2475C40.6018 29.6253 39.6521 30.5872 39.4762 31.1845L38.827 33.3887Z" fill="#474455"/>
<path d="M34 15.5C39.3107 15.5 43.4678 19.1267 43.4678 23.4326C43.4678 27.7385 39.3107 31.3652 34 31.3652C28.6894 31.3651 24.5322 27.7385 24.5322 23.4326C24.5322 19.1267 28.6894 15.5001 34 15.5Z" stroke="#474455"/>
<path d="M33.9189 15.5C37.2853 15.5003 40.1895 18.9438 40.1895 23.4326C40.1895 27.9215 37.2853 31.3649 33.9189 31.3652C30.5524 31.3652 27.6475 27.9217 27.6475 23.4326C27.6475 18.9435 30.5524 15.5 33.9189 15.5Z" stroke="#474455"/>
<line y1="-0.5" x2="18.2252" y2="-0.5" transform="matrix(0.999996 0.00293077 -0.00188903 0.999998 24.8301 20.5332)" stroke="#474455"/>
<line x1="33.6973" y1="31.8662" x2="33.6973" y2="15.001" stroke="#474455"/>
<line x1="24" y1="22.9326" x2="43.9688" y2="22.9326" stroke="#474455"/>
<line x1="24.8193" y1="26.582" x2="43.0502" y2="26.582" stroke="#474455"/>
<ellipse cx="33.9843" cy="21.6884" rx="1.18055" ry="1.1757" fill="#474455"/>
<path d="M32.734 24.2749C32.7528 23.6253 33.2848 23.1084 33.9347 23.1084C34.6094 23.1084 35.1518 23.664 35.1356 24.3385L34.9836 30.6491H32.5498L32.734 24.2749Z" fill="#474455"/>
<ellipse cx="37.2724" cy="23.1685" rx="1.08974" ry="0.952723" fill="#474455"/>
<path d="M36.1465 25.4311C36.1465 24.8193 36.6425 24.3232 37.2544 24.3232C37.8663 24.3232 38.3623 24.8193 38.3623 25.4311V29.9585L36.1465 30.3639V25.4311Z" fill="#474455"/>
<ellipse cx="30.6062" cy="24.284" rx="0.962605" ry="0.770287" fill="#474455"/>
<path d="M29.6074 26.1966C29.6074 25.6549 30.0465 25.2158 30.5882 25.2158C31.1299 25.2158 31.569 25.6549 31.569 26.1966V30.3646L29.6074 29.8781V26.1966Z" fill="#474455"/>
</svg>
