<svg width="55" height="54" viewBox="0 0 55 54" fill="none" xmlns="http://www.w3.org/2000/svg">
<g clip-path="url(#clip0_4515_1994)">
<rect x="-4.13761" y="20.955" width="22.0471" height="34.6183" transform="rotate(-38.9799 -4.13761 20.955)" fill="#F2F1EE" fill-opacity="0.99" stroke="#AAA7B9"/>
<path d="M3.54557 24.4014C3.48494 24.3562 3.42644 24.3266 3.37007 24.3126C3.31277 24.2976 3.25808 24.2977 3.206 24.313C3.15487 24.3273 3.1073 24.3568 3.06327 24.4014C3.02214 24.4414 2.99694 24.4882 2.98767 24.5418C2.97936 24.5945 2.99285 24.639 3.02815 24.6753C3.05695 24.705 3.09016 24.7229 3.12779 24.7291C3.16637 24.7344 3.21217 24.7299 3.26518 24.7155C3.31819 24.7012 3.38168 24.6795 3.45566 24.6504C3.50594 24.6295 3.55949 24.61 3.61633 24.592C3.67317 24.5739 3.73086 24.5625 3.78939 24.5577C3.84699 24.552 3.90302 24.557 3.95747 24.5729C4.011 24.5878 4.06052 24.6187 4.10604 24.6656C4.16085 24.722 4.19431 24.7871 4.20644 24.8608C4.21856 24.9346 4.20896 25.0108 4.17764 25.0895C4.14634 25.1664 4.09387 25.2406 4.02022 25.3121C3.98196 25.3493 3.93432 25.3835 3.87729 25.4147C3.82214 25.446 3.76381 25.4691 3.7023 25.4843L3.76513 25.5404L3.65466 25.6476L3.3286 25.3119L3.42329 25.22C3.51471 25.2873 3.60431 25.3183 3.69208 25.313C3.77987 25.3058 3.85725 25.2697 3.9242 25.2046C3.95863 25.1712 3.98272 25.1357 3.99647 25.0982C4.01022 25.0607 4.01452 25.0249 4.00936 24.9909C4.00327 24.9559 3.98861 24.9265 3.96539 24.9026C3.93287 24.8691 3.89398 24.853 3.8487 24.8542C3.80438 24.8545 3.75709 24.8642 3.70684 24.8832C3.65754 24.9014 3.60776 24.9209 3.55748 24.9419C3.49299 24.9673 3.43044 24.9891 3.36983 25.007C3.30925 25.0231 3.25066 25.0317 3.19407 25.0327C3.13748 25.0338 3.08387 25.0245 3.03324 25.0049C2.98168 24.9844 2.93314 24.9507 2.88762 24.9038C2.85883 24.8742 2.83484 24.838 2.81566 24.7953C2.79556 24.7516 2.78541 24.7038 2.78522 24.652C2.78411 24.5991 2.79671 24.5432 2.82303 24.4842C2.84936 24.4252 2.89408 24.365 2.95721 24.3037C2.99547 24.2666 3.04265 24.2319 3.09875 24.1997C3.15581 24.1666 3.21174 24.1457 3.26656 24.1371L3.20369 24.0838L3.3156 23.9752L3.64026 24.3094L3.54557 24.4014ZM4.78183 24.5724C4.72444 24.6282 4.66737 24.6622 4.61062 24.6746C4.55482 24.6861 4.49603 24.6762 4.43425 24.6452C4.37343 24.6132 4.30726 24.5603 4.23573 24.4867L4.07549 24.3217C4.05876 24.3045 4.0402 24.2844 4.01979 24.2615C3.99845 24.2376 3.97804 24.2147 3.95856 24.1927C3.94419 24.2085 3.92694 24.2271 3.90683 24.2485C3.88674 24.268 3.87191 24.2834 3.86231 24.2945L3.75641 24.1855L3.77076 24.1716C3.83006 24.114 3.87229 24.0637 3.89743 24.0207C3.92257 23.9776 3.93528 23.9467 3.93556 23.9279L4.01447 23.8512L4.44085 24.2902C4.50123 24.3524 4.55442 24.3909 4.6004 24.4057C4.64546 24.4196 4.68568 24.4093 4.72107 24.375C4.74594 24.3508 4.76431 24.32 4.77617 24.2824C4.78806 24.243 4.79331 24.2063 4.79192 24.1723L4.51881 23.8911C4.50209 23.8739 4.48353 23.8538 4.46312 23.8309C4.44178 23.807 4.42185 23.7836 4.40333 23.7607C4.38895 23.7765 4.37171 23.7952 4.35159 23.8165C4.33151 23.8361 4.31667 23.8514 4.30708 23.8626L4.20118 23.7535L4.23561 23.7201C4.28057 23.6764 4.31562 23.6331 4.34076 23.5901C4.36497 23.5461 4.37768 23.5152 4.37889 23.4973L4.4578 23.4207L4.9441 23.9214C4.9571 23.9348 4.9752 23.9544 4.9984 23.9802C5.02066 24.005 5.04152 24.0294 5.06098 24.0532C5.07442 24.0364 5.09023 24.0192 5.10841 24.0016C5.12661 23.982 5.14049 23.9676 5.15005 23.9583L5.25595 24.0674L4.98336 24.3321C4.97032 24.3206 4.95681 24.3096 4.94282 24.299C4.92979 24.2875 4.91628 24.2765 4.90229 24.2659C4.89679 24.3195 4.88658 24.3731 4.87165 24.4267C4.85768 24.4793 4.82774 24.5279 4.78183 24.5724ZM5.70172 23.679C5.6606 23.719 5.61531 23.7527 5.56588 23.7803C5.51645 23.8079 5.47283 23.8242 5.43504 23.8293L5.47971 23.8696L5.37068 23.9755L5.12527 23.7343L5.21853 23.6437C5.24927 23.6696 5.28629 23.6848 5.3296 23.6892C5.37291 23.6936 5.41779 23.6872 5.46424 23.6699C5.50977 23.6517 5.55262 23.6231 5.59279 23.5841C5.60905 23.5683 5.62203 23.5511 5.63174 23.5323C5.64239 23.5127 5.6474 23.493 5.64674 23.4732C5.64612 23.4515 5.63791 23.4325 5.62212 23.4162C5.60447 23.3981 5.58337 23.3897 5.55883 23.3913C5.53525 23.3919 5.50592 23.399 5.47083 23.4126C5.4367 23.4253 5.39496 23.4426 5.34561 23.4645C5.30481 23.4818 5.26307 23.4991 5.22039 23.5164C5.17866 23.5328 5.13652 23.5449 5.09398 23.5528C5.05146 23.5588 5.01001 23.5563 4.96962 23.5453C4.92831 23.5334 4.88907 23.5083 4.85192 23.47C4.82498 23.4423 4.80376 23.4099 4.78827 23.3729C4.77186 23.335 4.76396 23.2943 4.7646 23.2509C4.7643 23.2066 4.77439 23.1615 4.79486 23.1156C4.81629 23.0688 4.85044 23.0226 4.89731 22.9771C4.92313 22.952 4.95648 22.928 4.99736 22.905C5.03827 22.8801 5.0781 22.8647 5.11685 22.8587L5.07644 22.817L5.18548 22.7112L5.43211 22.9651L5.33885 23.0557C5.3006 23.0278 5.26078 23.0107 5.21938 23.0044C5.17894 22.9972 5.13881 23.0009 5.099 23.0154C5.05826 23.0289 5.02067 23.0524 4.98624 23.0859C4.96232 23.1091 4.9459 23.1362 4.93696 23.1672C4.92898 23.1972 4.93846 23.2261 4.96539 23.2539C4.98676 23.2759 5.0116 23.2861 5.03991 23.2847C5.06729 23.2822 5.09855 23.2723 5.13369 23.2549C5.16883 23.2375 5.20824 23.2188 5.2519 23.1987C5.31648 23.1675 5.3781 23.1449 5.43676 23.1306C5.49639 23.1155 5.55253 23.113 5.60518 23.1232C5.65691 23.1324 5.7046 23.1595 5.74826 23.2045C5.79656 23.2542 5.82407 23.3074 5.83079 23.3641C5.8375 23.4208 5.82867 23.4768 5.80429 23.532C5.78087 23.5864 5.74668 23.6354 5.70172 23.679ZM6.36507 23.0348C6.30768 23.0905 6.25061 23.1246 6.19385 23.137C6.13805 23.1484 6.07927 23.1386 6.01749 23.1075C5.95667 23.0755 5.89049 23.0227 5.81896 22.949L5.65872 22.784C5.642 22.7668 5.62344 22.7468 5.60303 22.7238C5.58169 22.6999 5.56128 22.677 5.5418 22.655C5.52743 22.6709 5.51018 22.6895 5.49007 22.7109C5.46998 22.7304 5.45514 22.7457 5.44555 22.7569L5.33965 22.6478L5.354 22.6339C5.4133 22.5763 5.45552 22.526 5.48067 22.483C5.50581 22.44 5.51852 22.4091 5.5188 22.3902L5.59771 22.3136L6.02409 22.7526C6.08447 22.8148 6.13765 22.8533 6.18364 22.8681C6.2287 22.8819 6.26892 22.8717 6.30431 22.8373C6.32918 22.8132 6.34754 22.7823 6.35941 22.7448C6.3713 22.7053 6.37655 22.6686 6.37516 22.6347L6.10205 22.3535C6.08533 22.3363 6.06676 22.3162 6.04636 22.2933C6.02502 22.2694 6.00509 22.246 5.98656 22.2231C5.97219 22.2389 5.95494 22.2575 5.93483 22.2789C5.91474 22.2984 5.89991 22.3138 5.89031 22.3249L5.78441 22.2159L5.81885 22.1824C5.8638 22.1388 5.89885 22.0955 5.924 22.0524C5.94821 22.0085 5.96092 21.9776 5.96212 21.9597L6.04103 21.883L6.52733 22.3837C6.54034 22.3971 6.55844 22.4167 6.58163 22.4425C6.6039 22.4674 6.62476 22.4917 6.64421 22.5156C6.65766 22.4988 6.67347 22.4816 6.69164 22.4639C6.70984 22.4444 6.72372 22.43 6.73329 22.4207L6.83919 22.5297L6.56659 22.7945C6.55356 22.783 6.54005 22.7719 6.52606 22.7614C6.51303 22.7498 6.49952 22.7388 6.48553 22.7282C6.48003 22.7819 6.46982 22.8355 6.45489 22.889C6.44092 22.9416 6.41098 22.9902 6.36507 23.0348ZM5.55017 26.5975C5.44055 26.5497 5.33139 26.5024 5.2227 26.4555C5.11496 26.4078 5.00675 26.3604 4.89805 26.3136C4.87275 26.3029 4.83809 26.2873 4.79408 26.2668C4.75008 26.2445 4.70049 26.2183 4.6453 26.1883C4.59106 26.1573 4.53639 26.124 4.48128 26.0883C4.53521 26.14 4.58588 26.1893 4.63329 26.2362C4.67976 26.2821 4.72342 26.3271 4.76427 26.371C4.7847 26.3921 4.8056 26.4136 4.82697 26.4356C4.84833 26.4576 4.86922 26.4801 4.88963 26.503C4.91007 26.524 4.93097 26.5456 4.95233 26.5676C4.97277 26.5886 4.99367 26.6101 5.01504 26.6321C5.04012 26.6579 5.06331 26.6837 5.08462 26.7095C5.10689 26.7344 5.12311 26.7539 5.13327 26.7682C5.14767 26.7505 5.16635 26.7305 5.18931 26.7082C5.21229 26.684 5.22856 26.6673 5.23813 26.658L5.34542 26.7685L5.0183 27.0862L4.92634 26.9915C4.94741 26.9692 4.9628 26.9486 4.9725 26.9299C4.98316 26.9103 4.98395 26.8881 4.97488 26.8635C4.96677 26.8379 4.94414 26.806 4.90698 26.7677L4.38191 26.2099C4.35779 26.1831 4.33459 26.1573 4.31232 26.1325C4.29006 26.1076 4.27336 26.0885 4.26224 26.0752C4.24787 26.091 4.22967 26.1105 4.20764 26.1338C4.18469 26.1561 4.16841 26.1728 4.15882 26.184L4.05153 26.0735L4.3686 25.7656L5.12449 26.1104C5.15447 26.124 5.18911 26.1406 5.22843 26.16C5.26682 26.1785 5.30427 26.1969 5.34077 26.2154C5.37635 26.2329 5.40442 26.2474 5.42499 26.2591L5.42643 26.2577C5.40635 26.2121 5.38625 26.1684 5.36611 26.1267C5.34598 26.0849 5.32725 26.0436 5.30993 26.0028C5.25063 25.8671 5.1913 25.7323 5.13197 25.5985C5.07359 25.4638 5.01522 25.329 4.95684 25.1943L5.28826 24.8724L5.38022 24.9671C5.36011 24.9885 5.34424 25.0095 5.33263 25.03C5.32101 25.0506 5.31926 25.0737 5.32737 25.0993C5.33551 25.123 5.35911 25.1539 5.39815 25.1922L5.95334 25.7208C5.98034 25.7448 6.00449 25.7697 6.0258 25.7954C6.04711 25.8212 6.06285 25.8412 6.07301 25.8555C6.08741 25.8378 6.10609 25.8178 6.12905 25.7955C6.15203 25.7714 6.16831 25.7546 6.17787 25.7453L6.28516 25.8558L5.88631 26.2432L5.79435 26.1485C5.81542 26.1262 5.83128 26.1052 5.84194 26.0855C5.85355 26.065 5.85483 26.0423 5.84576 26.0177C5.83765 25.9921 5.81405 25.9611 5.77498 25.9247L5.4681 25.6317C5.45696 25.6202 5.43696 25.6016 5.40811 25.5757C5.37832 25.5488 5.34622 25.5196 5.3118 25.488C5.2774 25.4545 5.24532 25.4234 5.21557 25.3947C5.2192 25.4041 5.22283 25.4136 5.22647 25.4231C5.22917 25.4316 5.23282 25.4402 5.23741 25.4487L5.6836 26.4679L5.55017 26.5975ZM6.79143 25.3641C6.77651 25.3526 6.76439 25.343 6.75508 25.3353C6.74579 25.3257 6.73463 25.3152 6.72159 25.3037C6.72066 25.3678 6.70852 25.4242 6.68518 25.4729C6.66183 25.5216 6.63151 25.564 6.59421 25.6003C6.533 25.6597 6.46752 25.688 6.39779 25.6851C6.32806 25.6822 6.26671 25.6535 6.21377 25.5989C6.16918 25.553 6.14257 25.5027 6.13394 25.4479C6.12627 25.3921 6.13181 25.3356 6.15056 25.2784C6.16934 25.2192 6.19705 25.1617 6.2337 25.1056C6.27038 25.0477 6.3117 24.9946 6.35767 24.9462L6.28521 24.8716C6.26106 24.8467 6.23588 24.8275 6.20968 24.8139C6.18443 24.7994 6.15858 24.7938 6.13213 24.7972C6.10664 24.7997 6.08096 24.8144 6.05511 24.8414C6.03786 24.86 6.02389 24.881 6.01317 24.9044C6.00246 24.9278 5.99692 24.9518 5.99656 24.9763C6.01258 24.9775 6.02665 24.9824 6.03878 24.991C6.04998 24.9987 6.0593 25.0064 6.06673 25.0141C6.08531 25.0332 6.09716 25.0607 6.1023 25.0966C6.1065 25.1316 6.0914 25.1648 6.05699 25.1964C6.02737 25.2233 5.99562 25.2346 5.96174 25.2304C5.92785 25.2261 5.89837 25.211 5.87329 25.1852C5.83613 25.147 5.81748 25.101 5.81732 25.0472C5.81719 24.9916 5.83265 24.9338 5.86369 24.8739C5.89381 24.8131 5.93661 24.7557 5.99209 24.7018C6.07626 24.6201 6.16266 24.5789 6.25131 24.5783C6.33997 24.5758 6.43076 24.6224 6.52365 24.7181C6.55523 24.7506 6.58217 24.7783 6.60447 24.8013C6.62676 24.8242 6.64858 24.8477 6.66992 24.8716C6.69221 24.8945 6.71915 24.9222 6.75073 24.9548C6.76374 24.9682 6.78184 24.9878 6.80504 25.0136C6.8273 25.0384 6.84816 25.0627 6.86761 25.0866C6.88202 25.0689 6.8983 25.0512 6.91648 25.0336C6.93372 25.015 6.94713 25.001 6.95669 24.9917L7.06259 25.1008L6.79143 25.3641ZM6.45516 25.0495C6.43117 25.0783 6.41047 25.1077 6.39306 25.1377C6.37565 25.1676 6.36343 25.1971 6.3564 25.2262C6.35033 25.2544 6.34993 25.2818 6.35521 25.3082C6.36143 25.3338 6.3743 25.3566 6.39381 25.3767C6.42077 25.4025 6.44796 25.4133 6.47537 25.409C6.50278 25.4047 6.527 25.3923 6.54804 25.3719C6.57004 25.3505 6.58596 25.3258 6.5958 25.2976C6.60564 25.2695 6.61078 25.2403 6.61122 25.2101C6.60193 25.2006 6.59311 25.1915 6.58475 25.1829C6.57546 25.1733 6.56617 25.1638 6.55688 25.1542C6.54016 25.137 6.52344 25.1198 6.50672 25.1025C6.48907 25.0844 6.47188 25.0667 6.45516 25.0495ZM7.83104 25.11C7.74878 25.1899 7.67492 25.244 7.60944 25.2722C7.5449 25.3015 7.48865 25.3115 7.4407 25.3023C7.39274 25.2931 7.35297 25.2723 7.32139 25.2397C7.30188 25.2196 7.28668 25.1954 7.27578 25.1669C7.26488 25.1385 7.2597 25.1054 7.26026 25.0677C7.26269 25.03 7.27509 24.9882 7.29745 24.9424C7.24801 24.9699 7.20402 24.9801 7.16546 24.973C7.12694 24.9639 7.09467 24.946 7.06866 24.9192C7.0445 24.8944 7.02761 24.8569 7.01797 24.8067C7.0074 24.7557 7.02052 24.6965 7.05734 24.6291C7.00137 24.6519 6.94376 24.6586 6.88449 24.6492C6.82522 24.6399 6.77095 24.6117 6.72166 24.5648C6.66401 24.5093 6.62912 24.4446 6.617 24.3709C6.60395 24.2962 6.61021 24.2223 6.6358 24.1491C6.66138 24.076 6.70143 24.0129 6.75595 23.96C6.78082 23.9358 6.81277 23.9113 6.85179 23.8864C6.89081 23.8615 6.93018 23.8456 6.96988 23.8386C6.9516 23.7988 6.93806 23.758 6.92923 23.7164C6.92044 23.6729 6.9201 23.6314 6.92822 23.5919C6.93541 23.5515 6.95384 23.5169 6.98349 23.4881C7.01601 23.4565 7.04876 23.4414 7.08174 23.4428C7.11475 23.4424 7.14472 23.456 7.17166 23.4837C7.18281 23.4952 7.19248 23.5109 7.20067 23.5308C7.2089 23.5489 7.21096 23.5692 7.20686 23.5917C7.20371 23.6134 7.19066 23.6353 7.16771 23.6576C7.15336 23.6716 7.1339 23.6803 7.10934 23.6837C7.08384 23.6861 7.06223 23.6811 7.0445 23.6686C7.03578 23.6845 7.03542 23.709 7.04342 23.7421C7.05142 23.7752 7.06236 23.8008 7.07624 23.819C7.12721 23.8159 7.17519 23.8232 7.22019 23.8409C7.26519 23.8585 7.30534 23.8855 7.34064 23.9218C7.39452 23.9773 7.42658 24.0419 7.43682 24.1156C7.44708 24.1874 7.43942 24.2599 7.41384 24.3331C7.38828 24.4044 7.34729 24.4674 7.29085 24.5222C7.27842 24.5343 7.26409 24.5473 7.24785 24.5612C7.23069 24.5741 7.21494 24.5876 7.20059 24.6015C7.17955 24.6219 7.16557 24.643 7.15865 24.6645C7.15174 24.6861 7.15478 24.7036 7.16779 24.717C7.18544 24.7352 7.21138 24.7341 7.24562 24.7139C7.27986 24.6937 7.33232 24.6529 7.40299 24.5917C7.48035 24.524 7.55373 24.4714 7.62311 24.4337C7.69252 24.3942 7.75785 24.3753 7.81912 24.3772C7.88038 24.379 7.93795 24.4077 7.99183 24.4631C8.03177 24.5043 8.05465 24.5518 8.06046 24.6056C8.06721 24.6604 8.06071 24.7178 8.04098 24.7778C8.02313 24.8379 7.9954 24.8965 7.95779 24.9534C7.92112 25.0114 7.87886 25.0635 7.83104 25.11ZM7.7765 24.9706C7.84441 24.9046 7.88351 24.8425 7.89379 24.7842C7.90503 24.7249 7.89764 24.6819 7.87163 24.6552C7.85212 24.6351 7.82821 24.6258 7.79991 24.6272C7.77253 24.6297 7.73982 24.6419 7.70178 24.664C7.66469 24.6851 7.62179 24.7175 7.57307 24.7611C7.55017 24.7796 7.52438 24.8019 7.49571 24.8279C7.46705 24.8539 7.44034 24.8752 7.41558 24.8918C7.41238 24.9172 7.41531 24.9422 7.42438 24.9669C7.43345 24.9915 7.4454 25.0124 7.46024 25.0296C7.49548 25.0697 7.54147 25.0845 7.5982 25.0741C7.65681 25.0636 7.71624 25.0291 7.7765 24.9706ZM7.20323 24.4205C7.22906 24.3954 7.24268 24.3664 7.24411 24.3334C7.24649 24.2995 7.23991 24.2659 7.22437 24.2327C7.20978 24.1985 7.18994 24.1686 7.16486 24.1427C7.13235 24.1093 7.09693 24.0814 7.05859 24.0591C7.01933 24.0359 6.98132 24.0236 6.94457 24.0221C6.90784 24.0188 6.87561 24.0305 6.84788 24.0575C6.80962 24.0946 6.79669 24.1407 6.80909 24.1955C6.82148 24.2504 6.84905 24.2998 6.89178 24.3438C6.92429 24.3773 6.9602 24.4047 6.99949 24.426C7.03785 24.4464 7.07494 24.4568 7.11076 24.4573C7.14659 24.4579 7.17741 24.4456 7.20323 24.4205ZM8.33403 23.8659C8.31911 23.8544 8.307 23.8448 8.29768 23.8371C8.28839 23.8275 8.27723 23.817 8.2642 23.8055C8.26326 23.8696 8.25112 23.926 8.22778 23.9747C8.20444 24.0234 8.17412 24.0658 8.13681 24.1021C8.0756 24.1615 8.01013 24.1898 7.94039 24.1869C7.87066 24.184 7.80932 24.1553 7.75637 24.1008C7.71178 24.0549 7.68517 24.0045 7.67654 23.9497C7.66887 23.8939 7.67441 23.8374 7.69316 23.7802C7.71194 23.7211 7.73966 23.6635 7.77631 23.6074C7.81298 23.5495 7.8543 23.4964 7.90027 23.448L7.82781 23.3734C7.80366 23.3485 7.77848 23.3293 7.75228 23.3157C7.72703 23.3012 7.70119 23.2957 7.67473 23.299C7.64924 23.3015 7.62357 23.3162 7.59771 23.3432C7.58047 23.3618 7.56649 23.3828 7.55578 23.4062C7.54506 23.4296 7.53953 23.4536 7.53917 23.4781C7.55518 23.4793 7.56925 23.4842 7.58138 23.4929C7.59259 23.5006 7.6019 23.5082 7.60933 23.5159C7.62791 23.535 7.63977 23.5625 7.6449 23.5984C7.64911 23.6334 7.634 23.6667 7.5996 23.6982C7.56998 23.7251 7.53822 23.7364 7.50434 23.7322C7.47046 23.7279 7.44098 23.7129 7.41589 23.687C7.37874 23.6488 7.36008 23.6028 7.35992 23.549C7.35979 23.4934 7.37525 23.4356 7.4063 23.3757C7.43642 23.3149 7.47922 23.2575 7.53469 23.2036C7.61886 23.1219 7.70527 23.0807 7.79391 23.0801C7.88258 23.0777 7.97336 23.1242 8.06625 23.2199C8.09784 23.2524 8.12478 23.2802 8.14707 23.3031C8.16937 23.3261 8.19118 23.3495 8.21252 23.3734C8.23482 23.3963 8.26175 23.4241 8.29334 23.4566C8.30634 23.47 8.32444 23.4896 8.34764 23.5154C8.36991 23.5402 8.39077 23.5646 8.41022 23.5884C8.42462 23.5707 8.44091 23.553 8.45908 23.5354C8.47633 23.5168 8.48973 23.5028 8.4993 23.4935L8.60519 23.6026L8.33403 23.8659ZM7.99777 23.5513C7.97377 23.5802 7.95307 23.6096 7.93566 23.6395C7.91825 23.6694 7.90603 23.6989 7.89901 23.728C7.89294 23.7562 7.89254 23.7836 7.89781 23.8101C7.90404 23.8356 7.9169 23.8584 7.93641 23.8785C7.96338 23.9044 7.99057 23.9151 8.01797 23.9108C8.04538 23.9065 8.06961 23.8941 8.09065 23.8737C8.11265 23.8523 8.12857 23.8276 8.13841 23.7994C8.14825 23.7713 8.15339 23.7421 8.15383 23.712C8.14454 23.7024 8.13571 23.6933 8.12735 23.6847C8.11806 23.6751 8.10878 23.6656 8.09949 23.656C8.08277 23.6388 8.06604 23.6216 8.04932 23.6044C8.03167 23.5862 8.01449 23.5685 7.99777 23.5513ZM8.67896 23.5309L8.57863 23.4276L8.48642 22.6724C8.48224 22.6356 8.47943 22.6021 8.47799 22.5719C8.47654 22.5417 8.47587 22.5228 8.47598 22.5153L8.28508 22.7063C8.26309 22.7276 8.25327 22.7539 8.25565 22.785C8.25805 22.8143 8.26795 22.8465 8.28535 22.8817C8.30275 22.9168 8.32532 22.9534 8.35305 22.9915L8.2641 23.0779L8.01526 22.7815L8.59632 22.2172L8.6841 22.3076L8.78636 23.053C8.79062 23.0842 8.79302 23.1135 8.79356 23.1408C8.79411 23.1682 8.79326 23.1941 8.79101 23.2186L8.99888 23.0279C9.03042 22.9991 9.0469 22.9682 9.04833 22.9352C9.05071 22.9013 9.04321 22.8658 9.02584 22.8288C9.00753 22.7908 8.98452 22.7528 8.95678 22.7147L9.04574 22.6283L9.29732 22.9304L8.67896 23.5309ZM9.33397 22.7136C9.36075 22.6876 9.37477 22.6637 9.37603 22.642C9.37729 22.6204 9.37007 22.5986 9.35436 22.5767C9.33868 22.5529 9.31876 22.5285 9.29461 22.5037L9.0633 22.2655C9.04658 22.2483 9.02802 22.2282 9.00761 22.2053C8.98627 22.1814 8.96634 22.158 8.94781 22.1351C8.93344 22.1509 8.9162 22.1695 8.89608 22.1909C8.876 22.2104 8.86116 22.2258 8.85156 22.237L8.74567 22.1279C8.78966 22.0852 8.82464 22.0466 8.85061 22.0121C8.87657 21.9775 8.89491 21.9486 8.90562 21.9252C8.91729 21.9008 8.92369 21.8825 8.92481 21.8703L9.00229 21.795L9.48858 22.2958C9.50159 22.3091 9.51969 22.3287 9.54289 22.3545C9.56515 22.3794 9.58601 22.4037 9.60546 22.4276C9.61891 22.4108 9.63472 22.3936 9.65289 22.3759C9.67109 22.3564 9.68498 22.342 9.69454 22.3327L9.80044 22.4418L9.42454 22.8068L9.33397 22.7136ZM8.78317 21.7876C8.75065 21.8192 8.71272 21.8337 8.66938 21.8312C8.62604 21.8287 8.58858 21.8112 8.557 21.7786C8.52542 21.7461 8.50948 21.7077 8.50918 21.6634C8.50889 21.6191 8.52356 21.5825 8.55321 21.5537C8.58382 21.524 8.62032 21.5108 8.6627 21.5143C8.70603 21.5168 8.74349 21.5343 8.77508 21.5668C8.80666 21.5994 8.82404 21.6364 8.8272 21.6779C8.83037 21.7195 8.81569 21.756 8.78317 21.7876ZM9.89391 22.351L9.80334 22.2577C9.83012 22.2317 9.84414 22.2079 9.8454 22.1862C9.84666 22.1645 9.83943 22.1427 9.82373 22.1208C9.80804 22.097 9.78813 22.0727 9.76397 22.0478L9.52988 21.8068C9.51316 21.7896 9.49506 21.77 9.47558 21.748C9.45517 21.7251 9.43571 21.7022 9.41718 21.6793C9.40281 21.6951 9.38556 21.7137 9.36545 21.7351C9.34536 21.7546 9.33052 21.7699 9.32093 21.7811L9.21503 21.6721C9.25903 21.6293 9.29401 21.5907 9.31997 21.5562C9.34594 21.5217 9.36427 21.4927 9.37499 21.4693C9.38666 21.445 9.39306 21.4267 9.39418 21.4144L9.46448 21.3462C9.47847 21.3567 9.48825 21.3649 9.49382 21.3706C9.4994 21.3764 9.50497 21.3821 9.51054 21.3878C9.51614 21.3917 9.52688 21.3989 9.54276 21.4095C9.54702 21.3757 9.55602 21.3409 9.56974 21.3053C9.58253 21.2687 9.59811 21.235 9.61648 21.2041C9.63391 21.1723 9.6522 21.1471 9.67133 21.1285C9.75932 21.0431 9.84611 21.008 9.93169 21.0234C10.0173 21.0369 10.114 21.0992 10.2217 21.2101L10.4085 21.4024C10.4215 21.4158 10.4396 21.4354 10.4628 21.4612C10.485 21.486 10.5059 21.5104 10.5253 21.5342C10.5397 21.5165 10.556 21.4988 10.5742 21.4812C10.5914 21.4626 10.6048 21.4486 10.6144 21.4393L10.7203 21.5484L10.3444 21.9134L10.2538 21.8202C10.2806 21.7942 10.2946 21.7703 10.2959 21.7487C10.2981 21.7261 10.2914 21.7038 10.2757 21.6819C10.26 21.6581 10.2401 21.6338 10.2159 21.6089L10.0166 21.4066C9.95623 21.3444 9.90256 21.3073 9.85559 21.2953C9.80864 21.2814 9.76413 21.2949 9.72204 21.3358C9.69813 21.359 9.67933 21.3875 9.66564 21.4212C9.6529 21.454 9.64537 21.4855 9.64304 21.5157C9.65605 21.5291 9.66952 21.5429 9.68345 21.5573C9.69645 21.5707 9.70946 21.5841 9.72247 21.5974L9.95795 21.8399C9.97096 21.8533 9.98906 21.8729 10.0123 21.8987C10.0345 21.9235 10.0554 21.9479 10.0748 21.9717C10.0883 21.955 10.1041 21.9377 10.1223 21.9201C10.1405 21.9006 10.1543 21.8862 10.1639 21.8769L10.2698 21.9859L9.89391 22.351ZM11.1711 21.1551C11.1013 21.2229 11.0248 21.2675 10.9415 21.289C10.8573 21.3094 10.7729 21.3058 10.6885 21.2782C10.6031 21.2496 10.5228 21.1966 10.4475 21.1191C10.3825 21.0521 10.3365 20.9751 10.3095 20.888C10.2824 20.8008 10.2785 20.7135 10.2977 20.6261C10.3169 20.5368 10.3624 20.4573 10.4342 20.3877C10.4743 20.3487 10.5191 20.3163 10.5685 20.2906C10.617 20.264 10.6696 20.2492 10.7262 20.2463C10.7837 20.2424 10.8439 20.2546 10.9067 20.2828C10.9704 20.3102 11.0352 20.3587 11.1011 20.4285L10.6389 20.8942C10.6891 20.9458 10.7403 20.9862 10.7927 21.0152C10.8461 21.0434 10.8992 21.055 10.952 21.0501C11.0049 21.0452 11.0562 21.0186 11.106 20.9703C11.1251 20.9517 11.1434 20.9275 11.1608 20.8976C11.1791 20.8667 11.1933 20.8316 11.2033 20.7921C11.2134 20.7508 11.2164 20.706 11.2124 20.6579L11.3354 20.6554C11.3484 20.7376 11.3478 20.8107 11.3337 20.8746C11.3186 20.9376 11.2956 20.9924 11.2648 21.0391C11.2349 21.0849 11.2037 21.1235 11.1711 21.1551ZM10.55 20.7854L10.814 20.529C10.774 20.4898 10.7376 20.4638 10.7048 20.451C10.672 20.4364 10.6419 20.4322 10.6145 20.4384C10.587 20.4446 10.5618 20.4588 10.5389 20.4811C10.4968 20.522 10.4787 20.5694 10.4845 20.6232C10.4894 20.6761 10.5112 20.7301 10.55 20.7854Z" fill="#474455"/>
<path d="M16.6359 22.6919C16.5876 22.6422 16.5506 22.5916 16.5249 22.5404C16.5003 22.4881 16.4831 22.436 16.4735 22.384C16.4648 22.3311 16.4604 22.2787 16.4602 22.2268C16.461 22.174 16.4627 22.1213 16.4654 22.0685C16.472 21.9357 16.4641 21.829 16.4418 21.7485C16.4203 21.6671 16.3845 21.6006 16.3343 21.5489C16.3046 21.5183 16.272 21.4924 16.2365 21.4711C16.201 21.4499 16.1643 21.4399 16.1266 21.4412C16.0879 21.4416 16.0509 21.4599 16.0155 21.4962C15.9896 21.5213 15.9723 21.5502 15.9633 21.5831C15.9543 21.6141 15.9525 21.6428 15.9578 21.6693C15.9785 21.6696 15.9978 21.6751 16.0155 21.6857C16.0342 21.6954 16.0487 21.7055 16.0589 21.716C16.0692 21.7266 16.0783 21.7427 16.0865 21.7645C16.0938 21.7854 16.0953 21.808 16.0912 21.8325C16.088 21.856 16.0745 21.8794 16.0506 21.9026C16.019 21.9295 15.9854 21.9408 15.9496 21.9365C15.9148 21.9313 15.8839 21.9148 15.857 21.8871C15.8356 21.8651 15.8196 21.8351 15.8088 21.7973C15.7971 21.7584 15.7935 21.7145 15.798 21.6656C15.8016 21.6156 15.8155 21.5649 15.8398 21.5134C15.8642 21.46 15.9017 21.4087 15.9524 21.3595C15.9907 21.3223 16.0331 21.2904 16.0797 21.2638C16.1272 21.2362 16.177 21.2176 16.229 21.2079C16.281 21.1983 16.3328 21.2019 16.3844 21.2187C16.437 21.2346 16.4879 21.2678 16.5371 21.3185C16.5604 21.3424 16.5807 21.372 16.5981 21.4071C16.6146 21.4413 16.6266 21.4853 16.6343 21.5392C16.6411 21.5921 16.6434 21.6586 16.6413 21.7387C16.6392 21.8188 16.6316 21.9172 16.6186 22.034C16.6078 22.1281 16.6072 22.2049 16.6167 22.2645C16.6262 22.324 16.6378 22.3657 16.6516 22.3895L16.9398 22.1235C16.9627 22.1031 16.98 22.0836 16.9916 22.0649C17.0032 22.0443 17.0068 22.0231 17.0024 22.0014C16.998 21.9778 16.9828 21.9525 16.9568 21.9258L17.0486 21.8366L17.2643 22.0816L16.6359 22.6919ZM17.7288 21.6751C17.657 21.7448 17.588 21.7914 17.5216 21.8149C17.4544 21.8375 17.3939 21.8432 17.3404 21.8321C17.2868 21.8209 17.2442 21.7991 17.2126 21.7666C17.1847 21.7379 17.1692 21.7046 17.166 21.6669C17.1628 21.6272 17.1755 21.5925 17.2043 21.5628C17.2273 21.5386 17.2505 21.5253 17.2742 21.5228C17.2978 21.5203 17.3194 21.5234 17.3391 21.5322C17.3588 21.541 17.3746 21.5516 17.3867 21.564C17.396 21.5736 17.4048 21.5864 17.413 21.6026C17.4203 21.6178 17.4253 21.6344 17.4278 21.6523C17.456 21.6603 17.4872 21.6579 17.5213 21.6452C17.5555 21.6306 17.5859 21.6103 17.6127 21.5843C17.673 21.5258 17.7007 21.4635 17.6961 21.3974C17.6914 21.3313 17.663 21.2715 17.611 21.2179C17.5794 21.1854 17.5416 21.1589 17.4976 21.1385C17.4536 21.1181 17.406 21.1122 17.355 21.1209C17.303 21.1286 17.2498 21.1599 17.1952 21.2147C17.1885 21.2212 17.177 21.2333 17.1607 21.251C17.1444 21.2686 17.1325 21.2821 17.1248 21.2915L17.0245 21.1882C17.033 21.1817 17.0407 21.1752 17.0474 21.1687C17.0541 21.1622 17.0608 21.1557 17.0675 21.1492C17.1095 21.1083 17.138 21.0658 17.1528 21.0217C17.1676 20.9776 17.1696 20.9348 17.1589 20.8931C17.1491 20.8505 17.1276 20.8111 17.0941 20.7748C17.0626 20.7404 17.03 20.7154 16.9962 20.6998C16.9625 20.6823 16.9287 20.6762 16.8947 20.6813C16.8616 20.6856 16.8288 20.7035 16.7963 20.7351C16.7705 20.7601 16.7531 20.7891 16.7441 20.822C16.7351 20.8549 16.7343 20.8827 16.7415 20.9054C16.7603 20.9076 16.7781 20.9144 16.7949 20.926C16.8117 20.9357 16.8243 20.9448 16.8327 20.9534C16.8439 20.9649 16.8535 20.9815 16.8617 21.0033C16.8699 21.0233 16.8719 21.0454 16.8678 21.0699C16.8636 21.0944 16.8492 21.1177 16.8243 21.14C16.7937 21.1678 16.761 21.1791 16.7262 21.1739C16.6914 21.1687 16.6605 21.1522 16.6336 21.1245C16.6057 21.0958 16.5861 21.0535 16.5746 20.9977C16.5632 20.9419 16.5683 20.8802 16.5901 20.8127C16.6109 20.7441 16.6548 20.6774 16.7217 20.6123C16.781 20.5547 16.8425 20.5109 16.9061 20.4807C16.9707 20.4496 17.0349 20.4392 17.0989 20.4495C17.1638 20.459 17.2265 20.4948 17.2869 20.5569C17.311 20.5818 17.3312 20.617 17.3475 20.6625C17.3639 20.7061 17.3688 20.7562 17.3623 20.8126C17.3558 20.8691 17.3323 20.9291 17.2918 20.9926C17.3994 20.9197 17.4989 20.8872 17.5902 20.8952C17.6825 20.9022 17.7584 20.9363 17.8179 20.9975C17.881 21.0625 17.9182 21.1343 17.9293 21.2127C17.9404 21.2892 17.9284 21.3678 17.8933 21.4484C17.8582 21.5271 17.8034 21.6026 17.7288 21.6751Z" fill="#474455"/>
<rect width="21.0193" height="37.4465" transform="matrix(1.05206 -0.173715 0.150206 0.91273 20.3975 7.51074)" fill="#474455"/>
<rect x="0.601133" y="0.369508" width="20.0193" height="36.4465" transform="matrix(1.05206 -0.173715 0.150206 0.91273 20.3107 7.64741)" stroke="#F2F1EE" stroke-opacity="0.99"/>
<rect x="0.601133" y="0.369508" width="20.0193" height="36.4465" transform="matrix(1.05206 -0.173715 0.150206 0.91273 20.7394 7.98042)" fill="#F2F1EE" fill-opacity="0.99" stroke="#AAA7B9"/>
<path d="M25.1244 15.1299C25.0921 15.0659 25.0535 15.0155 25.0086 14.9785C24.9634 14.9404 24.9125 14.9156 24.8561 14.9042C24.801 14.8925 24.7412 14.8945 24.6767 14.9104C24.6174 14.9238 24.5692 14.95 24.5321 14.9889C24.4965 15.0275 24.4854 15.0694 24.4989 15.1147C24.5099 15.1517 24.5312 15.1812 24.5629 15.2034C24.5959 15.2252 24.6408 15.2424 24.6976 15.255C24.7544 15.2676 24.8248 15.279 24.9089 15.2893C24.9667 15.2953 25.0267 15.304 25.089 15.3154C25.1513 15.3267 25.2109 15.3438 25.2678 15.3666C25.3243 15.3882 25.3737 15.4177 25.4158 15.4553C25.4576 15.4917 25.4871 15.539 25.5045 15.5975C25.5255 15.6678 25.522 15.7354 25.4942 15.8002C25.4664 15.865 25.417 15.922 25.3462 15.9711C25.2764 16.0187 25.1884 16.0545 25.0821 16.0785C25.0269 16.091 24.9645 16.0968 24.895 16.096C24.8273 16.096 24.7608 16.0882 24.6957 16.0723L24.7243 16.146L24.5648 16.1821L24.4402 15.7636L24.5769 15.7327C24.626 15.8285 24.6927 15.8942 24.777 15.9299C24.8623 15.964 24.9533 15.9702 25.0499 15.9484C25.0996 15.9371 25.1408 15.9195 25.1735 15.8956C25.2061 15.8717 25.2291 15.8449 25.2423 15.8152C25.2552 15.7843 25.2572 15.7539 25.2483 15.7241C25.2359 15.6824 25.2084 15.6517 25.1657 15.6321C25.1244 15.6121 25.0754 15.5984 25.0186 15.5909C24.9632 15.583 24.9066 15.5761 24.8489 15.5701C24.7755 15.5612 24.7059 15.5502 24.6402 15.5371C24.5754 15.5225 24.5165 15.5027 24.4634 15.4778C24.4103 15.4529 24.3654 15.421 24.3288 15.3822C24.2919 15.3422 24.2647 15.293 24.2473 15.2346C24.2363 15.1976 24.2332 15.1576 24.2381 15.1145C24.2426 15.0703 24.2585 15.0272 24.2858 14.9854C24.3128 14.9424 24.3541 14.9032 24.4098 14.8677C24.4656 14.8322 24.539 14.8041 24.6301 14.7835C24.6853 14.771 24.7475 14.7646 24.8166 14.7643C24.8871 14.7636 24.9501 14.7722 25.0056 14.7903L24.9754 14.7188L25.1369 14.6823L25.261 15.099L25.1244 15.1299ZM26.1812 15.8301C26.0984 15.8488 26.0273 15.8502 25.9681 15.8343C25.9102 15.8181 25.8609 15.7835 25.82 15.7304C25.7805 15.677 25.7471 15.6043 25.7198 15.5125L25.6585 15.3069C25.6521 15.2854 25.6456 15.2608 25.6388 15.2331C25.6316 15.2042 25.6248 15.1764 25.6184 15.1499C25.5967 15.1561 25.5708 15.1632 25.5408 15.1713C25.5118 15.1778 25.4899 15.1834 25.4751 15.188L25.4346 15.0521L25.4553 15.0474C25.5409 15.0281 25.6067 15.0068 25.6529 14.9837C25.699 14.9605 25.7272 14.9414 25.7375 14.9264L25.8514 14.9006L26.0143 15.4479C26.0374 15.5254 26.0664 15.5805 26.1012 15.6134C26.1357 15.645 26.1784 15.6551 26.2295 15.6435C26.2654 15.6354 26.2988 15.619 26.3297 15.5942C26.3617 15.5679 26.386 15.5407 26.4027 15.5128L26.2983 15.1623C26.2919 15.1408 26.2853 15.1162 26.2786 15.0885C26.2714 15.0595 26.2653 15.0317 26.2603 15.0048C26.2385 15.011 26.2127 15.0181 26.1827 15.0262C26.1537 15.0327 26.1318 15.0383 26.1169 15.0429L26.0765 14.907L26.1261 14.8958C26.191 14.8811 26.2465 14.8622 26.2927 14.8391C26.3385 14.8147 26.3667 14.7956 26.3773 14.7818L26.4911 14.756L26.677 15.3801C26.682 15.3968 26.6884 15.4208 26.6963 15.4521C26.7038 15.4823 26.7102 15.5113 26.7156 15.5394C26.737 15.532 26.7608 15.5254 26.787 15.5194C26.8143 15.512 26.8348 15.5067 26.8486 15.5036L26.8891 15.6395L26.4957 15.7284C26.4897 15.7133 26.483 15.6982 26.4756 15.6833C26.4696 15.6682 26.4629 15.6531 26.4556 15.6383C26.422 15.6789 26.3841 15.7174 26.3419 15.7537C26.301 15.7896 26.2475 15.8151 26.1812 15.8301ZM27.5088 15.53C27.4494 15.5434 27.3895 15.5499 27.329 15.5496C27.2685 15.5493 27.2193 15.5426 27.1815 15.5295L27.2017 15.5822L27.0443 15.6178L26.9444 15.3121L27.079 15.2816C27.0938 15.3165 27.1201 15.3455 27.158 15.3688C27.1958 15.392 27.2409 15.4073 27.2932 15.4146C27.3451 15.4206 27.4 15.4171 27.458 15.404C27.4814 15.3987 27.5026 15.3908 27.5216 15.3801C27.5419 15.3692 27.557 15.3556 27.5669 15.3393C27.5778 15.3216 27.5803 15.3026 27.5742 15.2823C27.5675 15.2597 27.5523 15.2434 27.5287 15.2334C27.5065 15.2232 27.4755 15.2156 27.4357 15.2106C27.3973 15.2052 27.3494 15.2002 27.292 15.1953C27.2449 15.1907 27.197 15.1856 27.1482 15.1801C27.1008 15.1743 27.0553 15.1649 27.0116 15.1518C26.969 15.1373 26.9318 15.1164 26.9001 15.0892C26.8681 15.0608 26.845 15.0228 26.8308 14.9751C26.8205 14.9405 26.818 14.9048 26.8232 14.868C26.8281 14.83 26.8423 14.7937 26.8659 14.7591C26.8891 14.7233 26.9224 14.6916 26.9658 14.664C27.0105 14.6361 27.0667 14.6145 27.1343 14.5992C27.1716 14.5908 27.2153 14.5866 27.2654 14.5867C27.3165 14.5853 27.3617 14.591 27.4009 14.6038L27.3854 14.552L27.5428 14.5164L27.6371 14.8329L27.5025 14.8633C27.4818 14.8235 27.4539 14.7916 27.4188 14.7678C27.385 14.7436 27.3458 14.7282 27.3012 14.7218C27.2562 14.7142 27.2089 14.7159 27.1592 14.7272C27.1246 14.735 27.095 14.7493 27.0703 14.7702C27.047 14.7907 27.0404 14.8183 27.0507 14.8528C27.0589 14.8803 27.0765 14.8998 27.1036 14.9115C27.1303 14.922 27.1645 14.9283 27.2064 14.9303C27.2482 14.9323 27.2948 14.9351 27.3459 14.9388C27.4224 14.9432 27.4916 14.953 27.5536 14.9682C27.617 14.9832 27.6704 15.0067 27.7139 15.0389C27.757 15.0699 27.7869 15.1134 27.8036 15.1694C27.822 15.2314 27.8194 15.2867 27.7955 15.3354C27.7717 15.384 27.7338 15.425 27.6819 15.4584C27.6313 15.4915 27.5736 15.5153 27.5088 15.53ZM28.4661 15.3136C28.3832 15.3323 28.3122 15.3337 28.253 15.3179C28.1951 15.3017 28.1458 15.267 28.1049 15.2139C28.0654 15.1605 28.032 15.0879 28.0047 14.9961L27.9434 14.7904C27.937 14.7689 27.9304 14.7443 27.9236 14.7166C27.9165 14.6877 27.9097 14.66 27.9033 14.6334C27.8815 14.6396 27.8557 14.6467 27.8257 14.6548C27.7967 14.6613 27.7748 14.6669 27.7599 14.6715L27.7195 14.5356L27.7402 14.5309C27.8257 14.5116 27.8916 14.4904 27.9377 14.4672C27.9839 14.444 28.0121 14.4249 28.0223 14.4099L28.1362 14.3842L28.2992 14.9314C28.3223 15.0089 28.3512 15.0641 28.3861 15.0969C28.4205 15.1286 28.4633 15.1386 28.5144 15.1271C28.5503 15.1189 28.5837 15.1025 28.6146 15.0777C28.6465 15.0514 28.6709 15.0242 28.6876 14.9963L28.5832 14.6458C28.5768 14.6243 28.5702 14.5997 28.5634 14.572C28.5563 14.5431 28.5502 14.5152 28.5451 14.4883C28.5234 14.4945 28.4975 14.5016 28.4675 14.5097C28.4385 14.5162 28.4166 14.5218 28.4018 14.5265L28.3613 14.3905L28.411 14.3793C28.4759 14.3646 28.5314 14.3457 28.5775 14.3226C28.6233 14.2982 28.6515 14.2791 28.6621 14.2653L28.776 14.2395L28.9619 14.8637C28.9669 14.8804 28.9733 14.9044 28.9811 14.9357C28.9886 14.9658 28.9951 14.9949 29.0005 15.0229C29.0219 15.0155 29.0457 15.0089 29.0719 15.0029C29.0991 14.9955 29.1197 14.9902 29.1335 14.9871L29.174 15.123L28.7806 15.212C28.7746 15.1968 28.7679 15.1817 28.7605 15.1669C28.7545 15.1517 28.7478 15.1366 28.7404 15.1218C28.7069 15.1624 28.669 15.2009 28.6267 15.2372C28.5859 15.2731 28.5323 15.2986 28.4661 15.3136ZM25.8206 17.8088C25.7442 17.7205 25.668 17.6327 25.5919 17.5456C25.5173 17.4581 25.4419 17.3708 25.3659 17.2837C25.3481 17.2635 25.3242 17.2352 25.2942 17.1987C25.2652 17.1607 25.233 17.1171 25.1977 17.0678C25.1638 17.0182 25.1307 16.9665 25.0985 16.9127C25.1211 16.9789 25.142 17.0416 25.1612 17.1009C25.1799 17.159 25.1966 17.215 25.2112 17.269C25.219 17.2952 25.227 17.3221 25.2352 17.3495C25.2434 17.3769 25.2508 17.4045 25.2576 17.4322C25.2654 17.4584 25.2734 17.4853 25.2816 17.5127C25.2894 17.5389 25.2974 17.5657 25.3056 17.5932C25.3151 17.6253 25.323 17.6567 25.3291 17.6871C25.3366 17.7172 25.3413 17.7403 25.3431 17.7564C25.3659 17.7488 25.3938 17.7412 25.427 17.7337C25.4611 17.7247 25.4851 17.7186 25.4989 17.7155L25.5399 17.8532L25.0678 17.9599L25.0327 17.8419C25.0641 17.8335 25.0892 17.824 25.1082 17.8134C25.1285 17.8024 25.1409 17.785 25.1456 17.761C25.1516 17.7367 25.1475 17.7008 25.1333 17.6531L24.9418 16.9653C24.9336 16.9328 24.9257 16.9015 24.9182 16.8714C24.9107 16.8413 24.9054 16.8183 24.9021 16.8025C24.8804 16.8087 24.8531 16.8161 24.8204 16.8248C24.7872 16.8323 24.7633 16.8384 24.7484 16.843L24.7074 16.7053L25.165 16.6018L25.6838 17.2233C25.7044 17.2479 25.7278 17.2769 25.754 17.3105C25.7798 17.3428 25.8048 17.3747 25.8289 17.4061C25.8526 17.4364 25.8709 17.4609 25.8839 17.4796L25.886 17.4791C25.8915 17.4333 25.896 17.3891 25.8994 17.3463C25.9029 17.3035 25.9074 17.2618 25.913 17.2211C25.9299 17.0849 25.9463 16.9495 25.9621 16.8149C25.9794 16.6799 25.9967 16.5449 26.0139 16.41L26.4922 16.3018L26.5274 16.4199C26.4974 16.4279 26.4715 16.4376 26.4498 16.4489C26.4281 16.4601 26.4143 16.4779 26.4082 16.5022C26.4032 16.5249 26.4087 16.5606 26.4246 16.6091L26.6597 17.2871C26.672 17.3186 26.6813 17.3496 26.6874 17.38C26.6935 17.4105 26.6975 17.4338 26.6993 17.4499C26.7221 17.4422 26.75 17.4346 26.7832 17.4271C26.8173 17.4181 26.8413 17.4121 26.8551 17.4089L26.8961 17.5466L26.3205 17.6768L26.2853 17.5587C26.3167 17.5504 26.3426 17.5407 26.3629 17.5297C26.3846 17.5185 26.3978 17.5009 26.4024 17.4769C26.4084 17.4526 26.403 17.417 26.386 17.3699L26.2565 16.9945C26.2523 16.9802 26.2436 16.9561 26.2306 16.9221C26.2171 16.887 26.2028 16.8489 26.1877 16.8078C26.1735 16.7652 26.1602 16.7255 26.1478 16.6889C26.1462 16.6982 26.1445 16.7075 26.1429 16.7167C26.1409 16.7248 26.1397 16.7334 26.1394 16.7423L26.0132 17.7653L25.8206 17.8088ZM27.6267 17.3815C27.619 17.3654 27.6128 17.3522 27.6083 17.3418C27.6047 17.3298 27.5999 17.3163 27.594 17.3011C27.5591 17.3522 27.5179 17.3921 27.4704 17.4206C27.423 17.4492 27.3723 17.4695 27.3185 17.4817C27.2301 17.5017 27.1544 17.4946 27.0912 17.4606C27.028 17.4265 26.9863 17.3755 26.966 17.3075C26.949 17.2503 26.951 17.1977 26.9721 17.1496C26.9945 17.1013 27.0296 17.0584 27.0773 17.0209C27.1261 16.9818 27.1824 16.9481 27.2461 16.9197C27.3109 16.8898 27.3774 16.8659 27.4457 16.8479L27.418 16.7549C27.4088 16.7239 27.3956 16.697 27.3785 16.6741C27.3627 16.651 27.3417 16.6347 27.3154 16.6254C27.2904 16.6158 27.2588 16.6159 27.2205 16.6259C27.1946 16.633 27.1705 16.6435 27.1481 16.6575C27.1258 16.6714 27.1079 16.6882 27.0946 16.7078C27.1088 16.716 27.1193 16.7263 27.1259 16.7388C27.1323 16.7501 27.1368 16.7606 27.1397 16.7701C27.1468 16.7939 27.1432 16.8215 27.1289 16.8527C27.1143 16.8827 27.0826 16.9026 27.034 16.9123C26.9922 16.9205 26.9567 16.9152 26.9275 16.8963C26.8983 16.8774 26.879 16.8519 26.8694 16.8197C26.8552 16.772 26.8622 16.7266 26.8906 16.6832C26.92 16.6384 26.965 16.599 27.0255 16.5649C27.0858 16.5297 27.1559 16.503 27.236 16.4849C27.3574 16.4575 27.4595 16.4637 27.542 16.5035C27.6257 16.5419 27.6852 16.6207 27.7207 16.7399C27.7328 16.7804 27.7431 16.815 27.7516 16.8436C27.7601 16.8722 27.768 16.901 27.7751 16.9299C27.7836 16.9586 27.7939 16.9931 27.806 17.0337C27.811 17.0504 27.8174 17.0744 27.8252 17.1057C27.8327 17.1358 27.8392 17.1649 27.8446 17.1929C27.8674 17.1852 27.8918 17.1784 27.9181 17.1725C27.9439 17.1654 27.9638 17.1602 27.9776 17.1571L28.0181 17.293L27.6267 17.3815ZM27.4815 16.9753C27.4439 16.9876 27.4091 17.0019 27.377 17.018C27.345 17.0342 27.318 17.0523 27.2961 17.0726C27.2755 17.0925 27.2606 17.1143 27.2515 17.138C27.2437 17.1614 27.2435 17.1856 27.251 17.2107C27.2623 17.2437 27.2818 17.2648 27.3096 17.2738C27.3373 17.2828 27.3663 17.2838 27.3967 17.277C27.4285 17.2698 27.4564 17.2571 27.4804 17.239C27.5045 17.2208 27.5247 17.1997 27.5411 17.1756C27.5376 17.1637 27.5342 17.1524 27.531 17.1416C27.5274 17.1297 27.5239 17.1178 27.5203 17.1059C27.5139 17.0844 27.5076 17.063 27.5012 17.0415C27.4944 17.0188 27.4878 16.9968 27.4815 16.9753ZM28.7264 17.6502C28.6077 17.677 28.5105 17.6869 28.4347 17.6798C28.3593 17.674 28.3018 17.6564 28.2622 17.6272C28.2225 17.598 28.1967 17.5631 28.1846 17.5226C28.1771 17.4976 28.1759 17.4711 28.1809 17.4433C28.1858 17.4154 28.1986 17.3865 28.2191 17.3564C28.2413 17.3272 28.275 17.2992 28.32 17.2725C28.2595 17.2722 28.2133 17.2604 28.1813 17.237C28.1503 17.2122 28.1299 17.1831 28.12 17.1497C28.1107 17.1188 28.1149 17.0809 28.1325 17.0362C28.1498 16.9903 28.1934 16.9486 28.2633 16.9112C28.1993 16.904 28.1422 16.8832 28.0922 16.8487C28.0421 16.8142 28.0067 16.7669 27.9858 16.7067C27.9617 16.6358 27.9636 16.5679 27.9915 16.5031C28.0189 16.4371 28.0639 16.3805 28.1265 16.3332C28.189 16.286 28.2597 16.2535 28.3383 16.2357C28.3742 16.2276 28.4169 16.2224 28.4663 16.2202C28.5157 16.2179 28.5607 16.223 28.6012 16.2355C28.6054 16.1951 28.6144 16.1561 28.6283 16.1187C28.6432 16.0797 28.6649 16.0461 28.6934 16.0181C28.7215 15.9888 28.757 15.9693 28.7998 15.9597C28.8467 15.949 28.8851 15.9518 28.9149 15.968C28.9458 15.9826 28.9664 16.0072 28.9767 16.0418C28.981 16.0561 28.9816 16.0731 28.9787 16.0929C28.9767 16.1112 28.9679 16.1284 28.9521 16.1447C28.9377 16.1607 28.914 16.1724 28.8808 16.1799C28.8601 16.1846 28.8375 16.1827 28.8128 16.1743C28.7879 16.1647 28.7705 16.1508 28.7607 16.1326C28.7441 16.1415 28.7308 16.161 28.7207 16.1913C28.7105 16.2216 28.7071 16.2472 28.7104 16.2681C28.7593 16.2888 28.8 16.3165 28.8324 16.3512C28.8648 16.3859 28.8878 16.4258 28.9013 16.4711C28.9219 16.5403 28.9174 16.6068 28.8878 16.6708C28.8592 16.7332 28.8137 16.7881 28.7512 16.8353C28.6896 16.881 28.6182 16.9131 28.5367 16.9315C28.5188 16.9355 28.4986 16.9395 28.4761 16.9433C28.4533 16.9459 28.4316 16.9495 28.4109 16.9542C28.3805 16.9611 28.3564 16.9716 28.3385 16.9858C28.3207 17 28.3142 17.0155 28.3192 17.0322C28.3259 17.0548 28.3506 17.0658 28.3931 17.0651C28.4356 17.0644 28.5059 17.0555 28.6039 17.0384C28.7116 17.0192 28.8077 17.0102 28.892 17.0115C28.9774 17.0113 29.0481 17.0258 29.1039 17.0552C29.1598 17.0846 29.1981 17.1338 29.2187 17.203C29.2339 17.2542 29.23 17.3028 29.2069 17.3488C29.1841 17.3959 29.1476 17.4392 29.0974 17.4785C29.049 17.5187 28.9922 17.5532 28.9271 17.5819C28.8624 17.6118 28.7955 17.6346 28.7264 17.6502ZM28.7497 17.5132C28.8477 17.491 28.917 17.4589 28.9574 17.4166C28.9993 17.3741 29.0152 17.3361 29.0053 17.3027C28.9978 17.2777 28.9806 17.2593 28.9535 17.2476C28.9268 17.2371 28.89 17.2321 28.843 17.2325C28.7973 17.2327 28.7403 17.2392 28.672 17.2521C28.6409 17.2566 28.6052 17.2628 28.5648 17.2706C28.5244 17.2785 28.4883 17.2834 28.4565 17.2855C28.4401 17.3045 28.4295 17.326 28.4249 17.35C28.4202 17.3739 28.4202 17.3962 28.4249 17.4168C28.4363 17.4651 28.4712 17.4979 28.5294 17.5153C28.5893 17.5336 28.6628 17.5329 28.7497 17.5132ZM28.5093 16.8098C28.5466 16.8014 28.5746 16.7842 28.5934 16.7583C28.6136 16.7321 28.6253 16.7021 28.6285 16.6683C28.6331 16.6342 28.6306 16.6011 28.621 16.5689C28.6085 16.5271 28.5904 16.4886 28.5667 16.4533C28.5425 16.4167 28.5138 16.3895 28.4805 16.3716C28.4481 16.3522 28.412 16.347 28.372 16.356C28.3167 16.3685 28.2803 16.3996 28.2628 16.4494C28.2452 16.4992 28.2445 16.5515 28.2609 16.6064C28.2733 16.6481 28.2921 16.6865 28.3173 16.7215C28.3421 16.7553 28.371 16.7806 28.4039 16.7973C28.4369 16.8141 28.472 16.8182 28.5093 16.8098ZM29.853 16.8783C29.8452 16.8622 29.8391 16.849 29.8345 16.8385C29.831 16.8266 29.8262 16.8131 29.8202 16.7979C29.7853 16.849 29.7442 16.8889 29.6967 16.9174C29.6492 16.946 29.5985 16.9663 29.5447 16.9785C29.4564 16.9985 29.3806 16.9914 29.3174 16.9573C29.2542 16.9233 29.2125 16.8722 29.1923 16.8043C29.1752 16.7471 29.1772 16.6944 29.1983 16.6464C29.2207 16.5981 29.2558 16.5552 29.3036 16.5176C29.3524 16.4786 29.4086 16.4449 29.4723 16.4165C29.5371 16.3866 29.6036 16.3626 29.6719 16.3447L29.6442 16.2517C29.635 16.2207 29.6218 16.1937 29.6047 16.1709C29.589 16.1477 29.5679 16.1315 29.5416 16.1222C29.5166 16.1125 29.485 16.1127 29.4467 16.1226C29.4208 16.1297 29.3967 16.1403 29.3744 16.1542C29.352 16.1682 29.3341 16.185 29.3208 16.2045C29.3351 16.2128 29.3455 16.2231 29.3522 16.2356C29.3585 16.2469 29.3631 16.2573 29.3659 16.2669C29.373 16.2907 29.3694 16.3182 29.3551 16.3495C29.3405 16.3795 29.3089 16.3994 29.2602 16.4091C29.2184 16.4173 29.183 16.4119 29.1538 16.3931C29.1246 16.3742 29.1052 16.3487 29.0956 16.3165C29.0814 16.2688 29.0885 16.2233 29.1168 16.18C29.1462 16.1352 29.1912 16.0958 29.2518 16.0617C29.312 16.0265 29.3821 15.9998 29.4622 15.9817C29.5837 15.9542 29.6857 15.9604 29.7683 16.0003C29.8519 16.0387 29.9115 16.1175 29.947 16.2367C29.959 16.2772 29.9693 16.3118 29.9779 16.3404C29.9864 16.369 29.9942 16.3978 30.0014 16.4267C30.0099 16.4553 30.0202 16.4899 30.0322 16.5304C30.0372 16.5471 30.0436 16.5711 30.0515 16.6024C30.059 16.6326 30.0654 16.6616 30.0708 16.6897C30.0936 16.682 30.1181 16.6752 30.1443 16.6693C30.1702 16.6621 30.19 16.657 30.2038 16.6539L30.2443 16.7898L29.853 16.8783ZM29.7077 16.4721C29.6701 16.4844 29.6353 16.4986 29.6033 16.5148C29.5713 16.5309 29.5443 16.5491 29.5223 16.5694C29.5017 16.5893 29.4868 16.6111 29.4777 16.6348C29.4699 16.6582 29.4698 16.6824 29.4772 16.7074C29.4885 16.7405 29.5081 16.7615 29.5358 16.7705C29.5635 16.7795 29.5926 16.7806 29.6229 16.7737C29.6547 16.7666 29.6826 16.7539 29.7067 16.7357C29.7307 16.7176 29.7509 16.6965 29.7673 16.6724C29.7638 16.6605 29.7604 16.6491 29.7572 16.6384C29.7537 16.6265 29.7501 16.6146 29.7466 16.6026C29.7402 16.5812 29.7338 16.5597 29.7274 16.5383C29.7206 16.5156 29.7141 16.4936 29.7077 16.4721ZM30.3508 16.7657L30.3124 16.637L30.6272 15.9875C30.6429 15.9559 30.6581 15.9277 30.6727 15.9027C30.6874 15.8778 30.6968 15.8623 30.7009 15.8563L30.4224 15.9231C30.3907 15.9302 30.3676 15.9469 30.3533 15.973C30.34 15.9977 30.3322 16.0281 30.3297 16.0643C30.3272 16.1005 30.3287 16.1402 30.3342 16.1835L30.2059 16.2125L30.1321 15.8608L30.9706 15.6713L31.0042 15.7839L30.7038 16.4302C30.6913 16.4572 30.678 16.4818 30.664 16.5041C30.65 16.5263 30.6354 16.5468 30.6204 16.5655L30.9145 16.5066C30.959 16.4978 30.9907 16.4805 31.0095 16.4546C31.0297 16.4284 31.0415 16.3965 31.045 16.3588C31.0482 16.3199 31.047 16.2788 31.0414 16.2355L31.1698 16.2065L31.2432 16.564L30.3508 16.7657ZM31.3921 16.4063C31.4308 16.3975 31.4564 16.3847 31.4691 16.3679C31.4818 16.351 31.4866 16.3302 31.4836 16.3054C31.4817 16.2791 31.4761 16.2505 31.4669 16.2195L31.3785 15.9226C31.3721 15.9012 31.3655 15.8766 31.3587 15.8488C31.3516 15.8199 31.3455 15.792 31.3404 15.7652C31.3187 15.7714 31.2928 15.7785 31.2628 15.7865C31.2338 15.7931 31.2119 15.7987 31.1971 15.8033L31.1566 15.6674C31.2201 15.653 31.273 15.6379 31.3154 15.6219C31.3578 15.606 31.3902 15.591 31.4126 15.5771C31.4363 15.5628 31.452 15.551 31.4595 15.5417L31.5713 15.5164L31.7572 16.1405C31.7622 16.1572 31.7686 16.1812 31.7764 16.2125C31.7839 16.2426 31.7904 16.2717 31.7958 16.2998C31.8171 16.2924 31.8409 16.2857 31.8672 16.2798C31.8944 16.2724 31.915 16.2671 31.9288 16.264L31.9692 16.3999L31.4268 16.5225L31.3921 16.4063ZM31.3719 15.4107C31.3249 15.4213 31.282 15.4157 31.2431 15.394C31.2042 15.3722 31.1788 15.3411 31.1667 15.3006C31.1546 15.26 31.1602 15.2219 31.1834 15.1861C31.2066 15.1503 31.2396 15.1275 31.2824 15.1179C31.3266 15.1079 31.3674 15.1139 31.405 15.136C31.4438 15.1577 31.4693 15.1889 31.4814 15.2294C31.4935 15.2699 31.49 15.3076 31.4709 15.3425C31.4518 15.3773 31.4188 15.4001 31.3719 15.4107ZM32.1041 16.3694L32.0695 16.2532C32.1082 16.2444 32.1338 16.2316 32.1465 16.2148C32.1591 16.1979 32.164 16.1771 32.161 16.1523C32.1591 16.126 32.1535 16.0974 32.1443 16.0664L32.0548 15.7659C32.0484 15.7445 32.042 15.7205 32.0356 15.6939C32.0288 15.6662 32.0228 15.6389 32.0178 15.6121C31.9961 15.6182 31.9702 15.6254 31.9402 15.6334C31.9112 15.64 31.8893 15.6456 31.8745 15.6502L31.834 15.5143C31.8975 15.4999 31.9504 15.4848 31.9928 15.4688C32.0352 15.4529 32.0676 15.4379 32.0899 15.424C32.1137 15.4097 32.1293 15.3979 32.1369 15.3886L32.2383 15.3656C32.2457 15.3805 32.2504 15.3915 32.2526 15.3987C32.2547 15.4058 32.2568 15.413 32.259 15.4201C32.2621 15.4258 32.2683 15.4365 32.2774 15.4522C32.2993 15.4269 32.3261 15.403 32.3577 15.3806C32.389 15.357 32.4213 15.337 32.4547 15.3205C32.4878 15.3029 32.5181 15.2909 32.5457 15.2847C32.6727 15.256 32.7718 15.2673 32.8431 15.3186C32.9154 15.3684 32.9721 15.4625 33.0133 15.6008L33.0847 15.8404C33.0897 15.8571 33.0961 15.8811 33.1039 15.9124C33.1114 15.9426 33.1179 15.9716 33.1233 15.9997C33.146 15.992 33.1705 15.9852 33.1968 15.9793C33.2226 15.9721 33.2425 15.967 33.2563 15.9639L33.2968 16.0998L32.7543 16.2224L32.7197 16.1062C32.7583 16.0975 32.784 16.0847 32.7966 16.0678C32.8107 16.0506 32.8162 16.0297 32.8132 16.0049C32.8113 15.9786 32.8057 15.9499 32.7965 15.919L32.7188 15.6655C32.6957 15.588 32.6655 15.5337 32.6283 15.5027C32.5921 15.4702 32.5436 15.4608 32.4829 15.4745C32.4484 15.4823 32.4158 15.4966 32.3852 15.5176C32.356 15.5382 32.3323 15.5601 32.3142 15.5832C32.3192 15.5999 32.3243 15.6172 32.3296 15.6351C32.3346 15.6518 32.3396 15.6685 32.3445 15.6852L32.4346 15.9874C32.4395 16.0041 32.4459 16.0281 32.4538 16.0594C32.4613 16.0895 32.4677 16.1186 32.4731 16.1466C32.4945 16.1393 32.5183 16.1326 32.5445 16.1267C32.5718 16.1193 32.5923 16.114 32.6061 16.1109L32.6466 16.2468L32.1041 16.3694ZM33.9237 15.9886C33.823 16.0114 33.7283 16.0125 33.6396 15.9918C33.5506 15.9699 33.4742 15.9286 33.4105 15.868C33.3464 15.8061 33.2999 15.7269 33.2712 15.6303C33.2463 15.5469 33.2445 15.4639 33.2656 15.3815C33.2867 15.2991 33.3294 15.2272 33.3935 15.1656C33.4587 15.1025 33.5431 15.0592 33.6466 15.0358C33.7046 15.0227 33.7633 15.0171 33.8228 15.0189C33.8819 15.0195 33.9385 15.0316 33.9926 15.055C34.0481 15.078 34.0975 15.1152 34.1408 15.1665C34.1854 15.2175 34.2198 15.2861 34.244 15.3722L33.5681 15.5365C33.5873 15.6009 33.6135 15.6567 33.6467 15.7039C33.6813 15.7508 33.7244 15.7843 33.7761 15.8044C33.8277 15.8245 33.8894 15.8265 33.9612 15.8103C33.9888 15.804 34.0186 15.7928 34.0507 15.7767C34.0841 15.7602 34.1159 15.7384 34.1461 15.7112C34.1773 15.6825 34.2038 15.6479 34.2256 15.6073L34.3412 15.6614C34.3096 15.7334 34.2703 15.7919 34.2233 15.8369C34.1759 15.8807 34.1256 15.9144 34.0722 15.9379C34.0201 15.9611 33.9707 15.978 33.9237 15.9886ZM33.5432 15.4085L33.9242 15.3224C33.9079 15.2726 33.8879 15.2351 33.8642 15.21C33.8415 15.1833 33.8158 15.1662 33.7871 15.1587C33.7583 15.1512 33.7274 15.1512 33.6942 15.1587C33.6335 15.1724 33.5916 15.2022 33.5684 15.2482C33.5449 15.293 33.5365 15.3464 33.5432 15.4085Z" fill="#474455"/>
<path d="M38.3224 19.6792C38.3039 19.6173 38.2964 19.5598 38.2997 19.5068C38.3045 19.4536 38.3162 19.4039 38.3349 19.3577C38.3549 19.3111 38.3786 19.267 38.4059 19.2252C38.4346 19.1831 38.4642 19.1414 38.4946 19.1001C38.5712 18.9963 38.6205 18.9069 38.6424 18.832C38.6656 18.7567 38.6677 18.6869 38.6485 18.6225C38.6371 18.5844 38.6206 18.5487 38.5989 18.5154C38.5772 18.4821 38.5485 18.4574 38.5128 18.4413C38.4767 18.4241 38.4326 18.4219 38.3805 18.435C38.3432 18.4434 38.3117 18.4588 38.286 18.4812C38.2612 18.502 38.2443 18.5243 38.2352 18.548C38.2542 18.5577 38.2692 18.5708 38.2801 18.5875C38.2923 18.6038 38.3004 18.6185 38.3043 18.6316C38.3082 18.6447 38.3081 18.6619 38.3041 18.6832C38.2998 18.7033 38.2892 18.7222 38.2724 18.74C38.257 18.7575 38.2321 18.7701 38.1976 18.7779C38.1541 18.7852 38.1168 18.779 38.0859 18.7592C38.0564 18.7392 38.0365 18.7119 38.0262 18.6773C38.018 18.6499 38.019 18.6185 38.029 18.5831C38.0388 18.5466 38.0587 18.5096 38.0888 18.4723C38.1186 18.4337 38.1584 18.3993 38.2083 18.3689C38.2593 18.337 38.3213 18.3128 38.3944 18.2963C38.4497 18.2838 38.506 18.2775 38.5633 18.2772C38.6221 18.2767 38.6782 18.2843 38.7315 18.3003C38.7849 18.3162 38.8311 18.3427 38.8701 18.3797C38.9105 18.4163 38.9401 18.4663 38.9589 18.5295C38.9678 18.5593 38.971 18.5923 38.9685 18.6285C38.9657 18.6635 38.9535 18.7044 38.9321 18.7512C38.9104 18.7968 38.8773 18.8514 38.8328 18.9149C38.7884 18.9784 38.7292 19.0541 38.6552 19.1421C38.5952 19.2129 38.5539 19.2744 38.5312 19.3267C38.5084 19.3789 38.4971 19.4177 38.4973 19.4431L38.9058 19.3603C38.9379 19.3543 38.9643 19.3464 38.985 19.3367C39.0067 19.3254 39.0212 19.31 39.0287 19.2905C39.0372 19.2695 39.0364 19.2423 39.0265 19.209L39.159 19.179L39.2292 19.4742L38.3224 19.6792ZM40.1196 18.96C40.1292 18.9921 40.1377 19.0233 40.1452 19.0534C40.1527 19.0835 40.1574 19.1067 40.1593 19.1228C40.182 19.1151 40.21 19.1075 40.2431 19.1C40.2759 19.0913 40.2992 19.0854 40.313 19.0823L40.354 19.22L39.7639 19.3534L39.7287 19.2354L39.7411 19.2326C39.7729 19.2254 39.7989 19.2163 39.8192 19.2054C39.8409 19.1941 39.8548 19.1763 39.8608 19.1521C39.8679 19.1263 39.8643 19.0896 39.8501 19.0419L39.8352 18.9918L39.2741 19.1186L39.224 18.9505L39.6993 18.0014L39.8256 17.9728L40.0626 18.7686L40.2655 18.7227L40.3135 18.8837L40.1106 18.9296L40.1196 18.96ZM39.66 18.4111L39.4171 18.9088L39.7862 18.8273L39.6641 18.4101L39.66 18.4111Z" fill="#474455"/>
<rect x="37.4844" y="8.55957" width="23.5158" height="36.3426" transform="rotate(28.7826 37.4844 8.55957)" fill="#474455"/>
<rect x="37.6819" y="9.23854" width="22.5158" height="35.3426" transform="rotate(28.7826 37.6819 9.23854)" stroke="#F2F1EE" stroke-opacity="0.99"/>
<path d="M40.5188 18.9297C40.5393 18.8575 40.5459 18.7933 40.5384 18.737C40.5314 18.6796 40.5111 18.6303 40.4774 18.5892C40.4449 18.5487 40.3994 18.5172 40.3408 18.4947C40.2877 18.4731 40.234 18.4685 40.1797 18.4808C40.1266 18.4937 40.0893 18.5231 40.0679 18.569C40.0504 18.6064 40.0456 18.6433 40.0536 18.6797C40.0628 18.7165 40.084 18.756 40.1172 18.7983C40.1503 18.8406 40.1943 18.8894 40.2493 18.9449C40.2877 18.9821 40.326 19.0229 40.3641 19.0672C40.4021 19.1115 40.4343 19.1591 40.4604 19.21C40.4872 19.2597 40.503 19.3122 40.5081 19.3675C40.5136 19.4215 40.5026 19.4781 40.4749 19.5373C40.4416 19.6086 40.3922 19.6639 40.3267 19.7034C40.2612 19.7428 40.1852 19.7636 40.0989 19.7658C40.0144 19.7674 39.9247 19.7487 39.8296 19.71C39.7802 19.6899 39.7302 19.6601 39.6795 19.6208C39.6295 19.5831 39.5859 19.5395 39.5488 19.4899L39.5188 19.5682L39.3762 19.5101L39.5745 19.0862L39.6968 19.136C39.6666 19.2445 39.6702 19.3373 39.7077 19.4144C39.7469 19.4908 39.8097 19.5466 39.8962 19.5818C39.9406 19.5999 39.9832 19.6079 40.0239 19.6058C40.0645 19.6037 40.1001 19.5937 40.1305 19.5759C40.1614 19.5569 40.1839 19.5323 40.1981 19.5021C40.2178 19.4598 40.2188 19.4185 40.2009 19.3782C40.1843 19.3383 40.1576 19.2994 40.121 19.2615C40.0856 19.224 40.0487 19.1867 40.0102 19.1495C39.9623 19.1011 39.9186 19.0531 39.8791 19.0054C39.8415 18.957 39.8117 18.9075 39.7899 18.8569C39.768 18.8063 39.757 18.7543 39.7569 18.7011C39.7574 18.6466 39.7715 18.5898 39.7991 18.5306C39.8167 18.4932 39.8421 18.4576 39.8756 18.4238C39.9096 18.3887 39.9512 18.3611 40.0004 18.3409C40.0501 18.3195 40.1078 18.3092 40.1736 18.3101C40.2393 18.311 40.3129 18.3281 40.3944 18.3613C40.4438 18.3814 40.4941 18.4105 40.5454 18.4487C40.5978 18.4873 40.6383 18.5297 40.6667 18.5758L40.6941 18.4985L40.8385 18.5574L40.641 18.9795L40.5188 18.9297ZM40.8127 20.1107C40.7387 20.0805 40.6853 20.0422 40.6526 19.9958C40.6211 19.9499 40.6087 19.8931 40.6154 19.8254C40.6234 19.7581 40.6491 19.678 40.6926 19.585L40.7901 19.3767C40.8002 19.355 40.8124 19.3305 40.8267 19.3032C40.8415 19.2747 40.8557 19.2474 40.8694 19.2214C40.849 19.2145 40.825 19.2062 40.7973 19.1963C40.7713 19.1857 40.7513 19.1783 40.7372 19.174L40.8016 19.0363L40.8201 19.0438C40.8966 19.075 40.96 19.0937 41.0101 19.0997C41.0602 19.1057 41.0942 19.1052 41.1122 19.0982L41.2141 19.1397L40.9547 19.694C40.918 19.7725 40.9011 19.8354 40.904 19.8826C40.9075 19.9286 40.9321 19.9609 40.9778 19.9795C41.0099 19.9926 41.0459 19.9972 41.0859 19.9934C41.1277 19.9889 41.1645 19.9794 41.1962 19.965L41.3624 19.61C41.3725 19.5882 41.3847 19.5637 41.399 19.5365C41.4137 19.508 41.4286 19.4809 41.4435 19.4554C41.4232 19.4485 41.3991 19.4402 41.3714 19.4303C41.3455 19.4198 41.3255 19.4123 41.3113 19.408L41.3757 19.2703L41.4202 19.2884C41.4782 19.3121 41.5323 19.3269 41.5824 19.333C41.633 19.3378 41.6671 19.3373 41.6845 19.3315L41.7864 19.373L41.4906 20.0052C41.4827 20.0221 41.4708 20.046 41.4548 20.0769C41.4395 20.1066 41.4241 20.1348 41.4086 20.1616C41.4295 20.1672 41.4517 20.1748 41.4751 20.1844C41.5004 20.1933 41.5192 20.2002 41.5315 20.2052L41.4671 20.3429L41.1152 20.1995C41.1213 20.1833 41.1268 20.1668 41.1317 20.1501C41.1378 20.1339 41.1433 20.1175 41.1482 20.1008C41.0952 20.1165 41.0406 20.1281 40.9843 20.1353C40.9292 20.1431 40.872 20.1349 40.8127 20.1107ZM42.0002 20.5947C41.9471 20.5731 41.8984 20.5453 41.854 20.5114C41.8096 20.4775 41.778 20.4444 41.7592 20.4123L41.7374 20.4682L41.5967 20.4108L41.7351 20.0962L41.8554 20.1453C41.8422 20.183 41.8415 20.2223 41.8533 20.263C41.8651 20.3038 41.8877 20.3418 41.9212 20.377C41.9553 20.411 41.9983 20.4386 42.0501 20.4597C42.0711 20.4683 42.0923 20.4733 42.1136 20.4748C42.1362 20.4769 42.1568 20.4737 42.1753 20.4655C42.1957 20.4565 42.2107 20.4418 42.2203 20.4213C42.231 20.3983 42.2311 20.3761 42.2206 20.3545C42.2114 20.3335 42.1938 20.3098 42.1679 20.2834C42.1432 20.2576 42.1114 20.2266 42.0724 20.1906C42.0409 20.1605 42.0091 20.1295 41.9769 20.0977C41.946 20.0664 41.9189 20.0331 41.8958 19.9978C41.8744 19.9618 41.8615 19.9234 41.857 19.8828C41.853 19.8409 41.8624 19.7958 41.885 19.7475C41.9014 19.7125 41.9242 19.6808 41.9536 19.6525C41.9836 19.623 42.0193 19.6002 42.0607 19.584C42.1026 19.5666 42.1492 19.5582 42.2003 19.5589C42.2527 19.5602 42.3091 19.5731 42.3696 19.5977C42.4029 19.6113 42.4381 19.6321 42.475 19.6601C42.5136 19.6874 42.543 19.7173 42.563 19.7499L42.5876 19.6974L42.7284 19.7548L42.5784 20.0754L42.458 20.0263C42.4703 19.981 42.4719 19.9385 42.4625 19.8988C42.4544 19.8595 42.4361 19.8247 42.4077 19.7945C42.3798 19.763 42.3436 19.7381 42.2992 19.72C42.2683 19.7074 42.2365 19.7031 42.2038 19.707C42.1723 19.7115 42.1484 19.7312 42.132 19.7662C42.119 19.794 42.1184 19.8204 42.1303 19.8453C42.1427 19.8691 42.1636 19.8934 42.1931 19.9184C42.2226 19.9434 42.255 19.9716 42.2902 20.0032C42.3435 20.0494 42.3878 20.0962 42.4229 20.1436C42.4593 20.1915 42.4824 20.2412 42.4922 20.2926C42.5025 20.3429 42.4944 20.3964 42.4678 20.4531C42.4384 20.5159 42.3981 20.5613 42.3468 20.5893C42.2955 20.6173 42.2391 20.6309 42.1776 20.6303C42.1174 20.6302 42.0583 20.6184 42.0002 20.5947ZM42.8565 20.9437C42.7824 20.9135 42.7291 20.8752 42.6964 20.8288C42.6649 20.7829 42.6525 20.7261 42.6592 20.6584C42.6672 20.5912 42.6929 20.5111 42.7364 20.4181L42.8338 20.2097C42.844 20.188 42.8562 20.1635 42.8704 20.1362C42.8852 20.1077 42.8995 20.0805 42.9131 20.0544C42.8928 20.0476 42.8688 20.0392 42.8411 20.0293C42.8151 20.0188 42.7951 20.0113 42.7809 20.007L42.8454 19.8693L42.8639 19.8769C42.9404 19.9081 43.0038 19.9267 43.0539 19.9327C43.104 19.9388 43.138 19.9383 43.156 19.9312L43.2579 19.9727L42.9985 20.5271C42.9618 20.6056 42.9449 20.6684 42.9478 20.7156C42.9513 20.7616 42.9759 20.7939 43.0215 20.8125C43.0536 20.8256 43.0897 20.8303 43.1297 20.8264C43.1715 20.8219 43.2083 20.8124 43.24 20.7981L43.4061 20.443C43.4163 20.4213 43.4285 20.3967 43.4427 20.3695C43.4575 20.341 43.4724 20.314 43.4873 20.2884C43.467 20.2816 43.4429 20.2732 43.4152 20.2633C43.3893 20.2528 43.3692 20.2453 43.3551 20.241L43.4195 20.1033L43.464 20.1214C43.522 20.1451 43.576 20.1599 43.6261 20.166C43.6768 20.1708 43.7109 20.1703 43.7283 20.1645L43.8302 20.206L43.5344 20.8382C43.5265 20.8551 43.5145 20.879 43.4986 20.9099C43.4833 20.9396 43.4679 20.9678 43.4524 20.9946C43.4733 21.0003 43.4954 21.0079 43.5189 21.0174C43.5442 21.0263 43.563 21.0332 43.5753 21.0383L43.5109 21.1759L43.159 21.0325C43.1651 21.0163 43.1706 20.9998 43.1755 20.9831C43.1816 20.9669 43.1871 20.9505 43.192 20.9338C43.139 20.9496 43.0844 20.9611 43.028 20.9683C42.973 20.9761 42.9158 20.9679 42.8565 20.9437ZM39.1742 21.5869C39.1791 21.4696 39.1838 21.3528 39.1881 21.2367C39.1937 21.121 39.1987 21.0051 39.203 20.889C39.2039 20.862 39.2059 20.8247 39.209 20.7771C39.214 20.7288 39.2205 20.674 39.2287 20.6126C39.2381 20.5517 39.2495 20.4895 39.2631 20.426C39.2339 20.4946 39.2058 20.5594 39.1788 20.6203C39.1523 20.68 39.1258 20.7367 39.0991 20.7906C39.0867 20.8171 39.074 20.8443 39.061 20.8721C39.048 20.8999 39.0344 20.9274 39.0201 20.9547C39.0077 20.9812 38.995 21.0084 38.982 21.0362C38.9696 21.0627 38.9569 21.0899 38.9439 21.1177C38.9286 21.1503 38.9127 21.1812 38.8961 21.2104C38.8807 21.2401 38.8681 21.2623 38.8583 21.277C38.8804 21.2831 38.9063 21.2922 38.9359 21.3043C38.9674 21.3157 38.9893 21.3239 39.0016 21.3289L38.9364 21.4684L38.5141 21.2963L38.57 21.1767C38.599 21.1871 38.6241 21.193 38.6455 21.1945C38.6681 21.1965 38.6894 21.1887 38.7094 21.171C38.7307 21.1538 38.7527 21.121 38.7753 21.0727L39.111 20.3834C39.1275 20.3513 39.1434 20.3204 39.1587 20.2907C39.1741 20.261 39.1861 20.2386 39.1947 20.2234C39.1743 20.2165 39.1491 20.2077 39.1189 20.1968C39.0892 20.1847 39.0674 20.1765 39.0532 20.1722L39.1185 20.0327L39.5278 20.1996L39.4794 21.0146C39.4776 21.0469 39.4747 21.0846 39.4707 21.1275C39.4674 21.1693 39.4636 21.2102 39.4596 21.2503C39.4561 21.2891 39.4527 21.3201 39.4493 21.3431L39.4511 21.3439C39.4869 21.3081 39.521 21.2731 39.5532 21.2388C39.5854 21.2045 39.6177 21.1716 39.65 21.1402C39.7569 21.0342 39.863 20.9286 39.9681 20.8234C40.0744 20.7186 40.1808 20.6138 40.2871 20.5091L40.7149 20.6834L40.659 20.803C40.6313 20.7931 40.6055 20.7869 40.5817 20.7844C40.5579 20.7819 40.5353 20.7892 40.514 20.8065C40.4946 20.823 40.4739 20.8562 40.4519 20.9062L40.1551 21.6114C40.1423 21.645 40.1276 21.6764 40.111 21.7056C40.0944 21.7348 40.0812 21.7567 40.0714 21.7714C40.0935 21.7776 40.1194 21.7867 40.1491 21.7987C40.1805 21.8101 40.2024 21.8183 40.2147 21.8233L40.1495 21.9628L39.6346 21.753L39.6905 21.6334C39.7195 21.6438 39.7453 21.65 39.7678 21.652C39.7917 21.6545 39.8136 21.6469 39.8336 21.6292C39.8549 21.612 39.8756 21.5787 39.8958 21.5294L40.0606 21.1393C40.0674 21.1248 40.0777 21.0996 40.0917 21.0635C40.1061 21.0263 40.122 20.986 40.1393 20.9428C40.1584 20.8988 40.1761 20.8578 40.1924 20.8199C40.1848 20.8268 40.1771 20.8338 40.1694 20.8407C40.1623 20.8465 40.1556 20.853 40.1492 20.8605L39.3465 21.6571L39.1742 21.5869ZM40.803 22.2292C40.8084 22.2113 40.8131 22.1967 40.8169 22.1853C40.8226 22.1732 40.8285 22.1591 40.8346 22.1429C40.7734 22.1668 40.7154 22.1777 40.6605 22.1755C40.6057 22.1732 40.5542 22.1623 40.5061 22.1427C40.4271 22.1105 40.3761 22.0624 40.3531 21.9984C40.3301 21.9344 40.3347 21.8679 40.3669 21.7991C40.394 21.7411 40.432 21.6977 40.4809 21.6687C40.5309 21.6402 40.5866 21.6233 40.6479 21.6181C40.7109 21.6122 40.7758 21.6149 40.8425 21.6263C40.911 21.6369 40.9767 21.6536 41.0396 21.6764L41.0837 21.5822C41.0983 21.5508 41.1073 21.5206 41.1105 21.4918C41.115 21.4634 41.1107 21.4379 41.0977 21.4154C41.086 21.3933 41.0626 21.3759 41.0274 21.363C41.0034 21.3546 40.9783 21.3501 40.9521 21.3495C40.9259 21.3489 40.9012 21.3532 40.8778 21.3624C40.8825 21.3773 40.8831 21.3919 40.8793 21.4062C40.8761 21.4192 40.8723 21.4306 40.8678 21.4403C40.8565 21.4644 40.8347 21.4858 40.8025 21.5043C40.7709 21.5216 40.7338 21.5208 40.6911 21.502C40.6547 21.4857 40.6322 21.4614 40.6237 21.4292C40.6153 21.397 40.6187 21.3646 40.6339 21.332C40.6565 21.2837 40.6933 21.2491 40.7443 21.2282C40.797 21.2065 40.8576 21.1981 40.9259 21.203C40.9947 21.2066 41.065 21.223 41.1366 21.2522C41.2453 21.2965 41.3162 21.3585 41.3495 21.4382C41.3846 21.5172 41.3739 21.6171 41.3174 21.7378C41.2981 21.7789 41.2818 21.8139 41.2682 21.8429C41.2546 21.8719 41.2405 21.9006 41.2257 21.9291C41.2121 21.9581 41.1957 21.9931 41.1765 22.0342C41.1686 22.0511 41.1567 22.075 41.1408 22.1059C41.1254 22.1356 41.11 22.1638 41.0945 22.1906C41.1166 22.1967 41.1394 22.2046 41.1629 22.2141C41.1869 22.2225 41.2051 22.2292 41.2175 22.2342L41.153 22.3719L40.803 22.2292ZM40.9776 21.8042C40.9413 21.7938 40.9057 21.7865 40.8709 21.7824C40.8361 21.7782 40.8036 21.7786 40.7733 21.7836C40.7443 21.789 40.7182 21.7992 40.695 21.8142C40.6731 21.8297 40.6562 21.8501 40.6443 21.8755C40.6297 21.9098 40.6295 21.9385 40.6437 21.9615C40.658 21.9846 40.6786 22.0017 40.7058 22.0127C40.7342 22.0243 40.7636 22.0291 40.7939 22.0271C40.8243 22.0251 40.8538 22.0184 40.8826 22.0071C40.8883 21.9951 40.8937 21.9836 40.8987 21.9727C40.9044 21.9606 40.91 21.9486 40.9157 21.9365C40.9259 21.9148 40.936 21.893 40.9462 21.8713C40.9569 21.8483 40.9674 21.826 40.9776 21.8042ZM41.4279 23.0685C41.3217 23.0252 41.2431 22.9795 41.1921 22.9314C41.1405 22.8845 41.1103 22.8376 41.1013 22.7908C41.0923 22.744 41.0974 22.7001 41.1166 22.659C41.1285 22.6337 41.1459 22.6106 41.1689 22.5897C41.1919 22.5689 41.2214 22.5514 41.2574 22.5374C41.294 22.525 41.3383 22.52 41.3901 22.5224C41.3456 22.4885 41.3197 22.4528 41.3123 22.4152C41.3067 22.377 41.3118 22.341 41.3276 22.3071C41.3423 22.2757 41.3716 22.246 41.4156 22.2179C41.4602 22.1886 41.5213 22.1776 41.5988 22.1847C41.5565 22.143 41.5289 22.0937 41.5159 22.0366C41.5029 21.9795 41.5096 21.9197 41.5359 21.8571C41.5673 21.7836 41.6158 21.7272 41.6813 21.6877C41.7474 21.6471 41.8199 21.6241 41.8988 21.6189C41.9777 21.6137 42.0523 21.6254 42.1227 21.6541C42.1548 21.6672 42.1898 21.6865 42.2279 21.7121C42.2659 21.7376 42.2955 21.767 42.3168 21.8001C42.3479 21.7682 42.3816 21.7402 42.4178 21.7161C42.4559 21.6914 42.4951 21.675 42.5356 21.6671C42.5766 21.6579 42.6163 21.6611 42.6546 21.6767C42.6965 21.6939 42.7229 21.7176 42.7338 21.7479C42.7464 21.7774 42.7445 21.8097 42.7281 21.8448C42.7213 21.8593 42.71 21.8741 42.6941 21.8892C42.68 21.9035 42.6615 21.9133 42.6386 21.9183C42.6169 21.9238 42.5912 21.9206 42.5616 21.9085C42.5431 21.9009 42.5276 21.8867 42.5153 21.8659C42.5036 21.8439 42.5004 21.8224 42.5057 21.8016C42.4874 21.7999 42.464 21.809 42.4355 21.8291C42.4071 21.8491 42.3868 21.8689 42.3747 21.8884C42.3964 21.9332 42.4072 21.9793 42.407 22.0267C42.4069 22.0741 42.3961 22.1207 42.3747 22.1666C42.3419 22.2367 42.2924 22.2906 42.2262 22.3283C42.1619 22.3653 42.0902 22.3865 42.0113 22.3917C41.9342 22.3962 41.8593 22.3836 41.7864 22.3539C41.7704 22.3474 41.7528 22.3395 41.7336 22.3302C41.7149 22.3198 41.6964 22.3108 41.6778 22.3032C41.6507 22.2921 41.6256 22.2877 41.6025 22.2898C41.5795 22.2919 41.564 22.3014 41.5561 22.3183C41.5454 22.3413 41.5559 22.3643 41.5878 22.3873C41.6196 22.4104 41.6776 22.4419 41.7618 22.482C41.8546 22.5255 41.9317 22.5713 41.993 22.6194C42.0562 22.6667 42.0982 22.7183 42.119 22.7742C42.1399 22.8302 42.134 22.8932 42.1012 22.9633C42.0769 23.0152 42.0403 23.0542 41.9913 23.0802C41.9418 23.1075 41.8849 23.1239 41.8206 23.1293C41.757 23.1364 41.6912 23.1341 41.6233 23.1222C41.5548 23.1115 41.4896 23.0936 41.4279 23.0685ZM41.5401 22.9653C41.6277 23.0011 41.7011 23.0123 41.7603 22.999C41.8207 22.9862 41.8588 22.9629 41.8746 22.9291C41.8864 22.9038 41.8865 22.8786 41.8746 22.8536C41.8622 22.8299 41.8385 22.8051 41.8035 22.7794C41.7698 22.7541 41.7232 22.7279 41.6638 22.7009C41.6378 22.6874 41.6071 22.6727 41.5719 22.6569C41.5367 22.6411 41.5066 22.6253 41.4817 22.6094C41.4564 22.6163 41.4337 22.6286 41.4137 22.6464C41.3936 22.6641 41.3782 22.6829 41.3673 22.703C41.3423 22.7503 41.3452 22.7975 41.3761 22.8446C41.4076 22.8934 41.4623 22.9336 41.5401 22.9653ZM41.8506 22.2356C41.884 22.2492 41.9165 22.2502 41.9484 22.2388C41.9814 22.2278 42.0109 22.2089 42.0367 22.182C42.0637 22.1556 42.0849 22.1262 42.1001 22.0935C42.1199 22.0513 42.1333 22.0086 42.1402 21.9654C42.1478 21.921 42.1454 21.8819 42.1333 21.8482C42.1229 21.8138 42.0998 21.7893 42.064 21.7747C42.0146 21.7546 41.9662 21.7607 41.9187 21.7931C41.8712 21.8255 41.8344 21.8695 41.8085 21.9251C41.7887 21.9673 41.7759 22.0103 41.7702 22.054C41.765 22.0965 41.7688 22.1339 41.7815 22.1664C41.7942 22.199 41.8173 22.222 41.8506 22.2356ZM42.7943 23.0409C42.7998 23.0229 42.8044 23.0083 42.8083 22.9969C42.8139 22.9848 42.8198 22.9707 42.8259 22.9545C42.7647 22.9785 42.7067 22.9893 42.6519 22.9871C42.5971 22.9849 42.5456 22.974 42.4974 22.9543C42.4184 22.9221 42.3674 22.874 42.3444 22.81C42.3214 22.746 42.326 22.6796 42.3582 22.6107C42.3854 22.5528 42.4233 22.5093 42.4722 22.4803C42.5223 22.4518 42.5779 22.435 42.6392 22.4297C42.7022 22.4238 42.7671 22.4265 42.8338 22.4379C42.9024 22.4486 42.968 22.4653 43.0309 22.488L43.075 22.3938C43.0897 22.3624 43.0986 22.3323 43.1019 22.3034C43.1063 22.275 43.1021 22.2496 43.0891 22.227C43.0773 22.205 43.0539 22.1875 43.0188 22.1746C42.9947 22.1663 42.9696 22.1618 42.9435 22.1612C42.9173 22.1606 42.8925 22.1649 42.8691 22.174C42.8739 22.1889 42.8744 22.2035 42.8707 22.2178C42.8675 22.2309 42.8636 22.2423 42.8591 22.2519C42.8478 22.2761 42.8261 22.2974 42.7939 22.3159C42.7623 22.3332 42.7251 22.3325 42.6825 22.3137C42.646 22.2973 42.6235 22.2731 42.6151 22.2409C42.6066 22.2087 42.61 22.1763 42.6253 22.1437C42.6479 22.0954 42.6847 22.0607 42.7356 22.0398C42.7884 22.0182 42.8489 22.0098 42.9172 22.0146C42.9861 22.0182 43.0563 22.0346 43.1279 22.0638C43.2366 22.1081 43.3076 22.1701 43.3408 22.2498C43.3759 22.3288 43.3652 22.4287 43.3087 22.5495C43.2895 22.5905 43.2731 22.6256 43.2595 22.6545C43.246 22.6835 43.2318 22.7123 43.217 22.7407C43.2034 22.7697 43.1871 22.8048 43.1678 22.8458C43.1599 22.8627 43.148 22.8866 43.1321 22.9175C43.1167 22.9472 43.1013 22.9754 43.0859 23.0022C43.108 23.0084 43.1308 23.0162 43.1542 23.0258C43.1783 23.0341 43.1964 23.0408 43.2088 23.0458L43.1444 23.1835L42.7943 23.0409ZM42.9689 22.6159C42.9326 22.6054 42.8971 22.5981 42.8623 22.594C42.8274 22.5899 42.7949 22.5903 42.7647 22.5952C42.7357 22.6006 42.7096 22.6109 42.6864 22.6258C42.6644 22.6413 42.6475 22.6618 42.6356 22.6871C42.6211 22.7215 42.6209 22.7501 42.6351 22.7732C42.6493 22.7962 42.67 22.8133 42.6971 22.8244C42.7255 22.8359 42.7549 22.8407 42.7853 22.8387C42.8156 22.8367 42.8452 22.8301 42.874 22.8188C42.8796 22.8067 42.885 22.7952 42.8901 22.7844C42.8957 22.7723 42.9014 22.7602 42.907 22.7481C42.9172 22.7264 42.9274 22.7047 42.9375 22.6829C42.9483 22.66 42.9587 22.6376 42.9689 22.6159ZM43.2396 23.2223L43.3006 23.0919L43.9834 22.7166C44.0168 22.6986 44.0476 22.6831 44.0757 22.6701C44.1038 22.6572 44.1215 22.6493 44.1287 22.6464L43.877 22.5481C43.8486 22.5366 43.82 22.5379 43.7913 22.5521C43.7644 22.5656 43.7375 22.5869 43.7106 22.6162C43.6837 22.6455 43.6572 22.68 43.6313 22.7198L43.5165 22.673L43.706 22.3339L44.456 22.6397L44.4026 22.7538L43.7328 23.1343C43.7048 23.1502 43.6779 23.1637 43.6522 23.1748C43.6264 23.1859 43.6015 23.1951 43.5774 23.2026L43.8352 23.3163C43.8741 23.3336 43.9095 23.3365 43.9413 23.325C43.9744 23.314 44.0053 23.2936 44.034 23.2636C44.0633 23.2324 44.091 23.1969 44.1169 23.1571L44.2317 23.204L44.0378 23.5477L43.2396 23.2223ZM44.2572 23.4969C44.2917 23.511 44.3195 23.5144 44.3406 23.5071C44.3616 23.4999 44.3796 23.485 44.3946 23.4623C44.4114 23.439 44.4272 23.4116 44.4419 23.3802L44.5825 23.0795C44.5927 23.0577 44.6049 23.0332 44.6191 23.006C44.6339 22.9775 44.6488 22.9504 44.6637 22.9249C44.6434 22.918 44.6193 22.9097 44.5916 22.8998C44.5657 22.8893 44.5456 22.8818 44.5315 22.8775L44.5959 22.7398C44.6527 22.7629 44.7023 22.7796 44.7446 22.7896C44.7869 22.7997 44.8212 22.805 44.8474 22.8056C44.8748 22.8067 44.8945 22.8054 44.9066 22.8017L45.0066 22.8425L44.7108 23.4747C44.7029 23.4916 44.691 23.5155 44.675 23.5464C44.6597 23.5761 44.6443 23.6043 44.6288 23.6311C44.6497 23.6367 44.6718 23.6443 44.6953 23.6539C44.7206 23.6628 44.7394 23.6697 44.7517 23.6747L44.6873 23.8124L44.2021 23.6146L44.2572 23.4969ZM44.9328 22.642C44.8908 22.6249 44.863 22.5963 44.8494 22.5562C44.8358 22.5162 44.8386 22.4756 44.8578 22.4346C44.877 22.3935 44.9076 22.3643 44.9495 22.3468C44.9915 22.3294 45.0316 22.3285 45.0699 22.3441C45.1094 22.3602 45.1354 22.3881 45.1477 22.4276C45.1613 22.4677 45.1585 22.5082 45.1393 22.5493C45.1201 22.5904 45.0914 22.6204 45.0531 22.6393C45.0149 22.6582 44.9747 22.6591 44.9328 22.642ZM44.808 23.8616L44.8631 23.7438C44.8976 23.7579 44.9254 23.7613 44.9465 23.7541C44.9675 23.7469 44.9855 23.7319 45.0005 23.7093C45.0173 23.6859 45.0331 23.6585 45.0478 23.6271L45.1901 23.3228C45.2003 23.3011 45.2122 23.2772 45.2259 23.2511C45.2401 23.2238 45.2547 23.1974 45.2696 23.1718C45.2493 23.165 45.2252 23.1566 45.1975 23.1468C45.1716 23.1362 45.1515 23.1288 45.1374 23.1244L45.2018 22.9868C45.2586 23.0099 45.3082 23.0265 45.3505 23.0366C45.3928 23.0466 45.4271 23.052 45.4533 23.0526C45.4807 23.0537 45.5004 23.0524 45.5125 23.0487L45.6032 23.0857C45.5983 23.1024 45.5942 23.1143 45.5908 23.1216C45.5874 23.1288 45.584 23.1361 45.5806 23.1433C45.579 23.1499 45.5761 23.1623 45.5719 23.1808C45.6057 23.1715 45.642 23.1662 45.6809 23.1648C45.7203 23.1621 45.7581 23.1632 45.7941 23.1678C45.8307 23.1712 45.8614 23.1779 45.8861 23.188C45.9997 23.2343 46.065 23.299 46.0819 23.3822C46.1007 23.4646 46.0773 23.5758 46.0118 23.7159L45.8982 23.9587C45.8903 23.9756 45.8784 23.9995 45.8625 24.0304C45.8471 24.0601 45.8317 24.0883 45.8162 24.1151C45.8384 24.1212 45.8612 24.1291 45.8846 24.1386C45.9086 24.147 45.9268 24.1537 45.9392 24.1587L45.8748 24.2964L45.3895 24.0986L45.4446 23.9809C45.4792 23.995 45.507 23.9984 45.528 23.9911C45.5503 23.9844 45.5689 23.9697 45.5839 23.9471C45.6007 23.9237 45.6165 23.8963 45.6312 23.8649L45.7497 23.6069C45.7864 23.5284 45.8018 23.4657 45.7958 23.4187C45.7917 23.371 45.7624 23.3361 45.7081 23.3139C45.6772 23.3013 45.6433 23.2954 45.6062 23.2961C45.5703 23.2973 45.5377 23.3027 45.5082 23.3122C45.5003 23.3292 45.4921 23.3467 45.4836 23.3648C45.4757 23.3817 45.4678 23.3986 45.4599 23.4155L45.3167 23.7217C45.3088 23.7386 45.2969 23.7625 45.2809 23.7934C45.2656 23.8231 45.2502 23.8513 45.2347 23.8781C45.2556 23.8837 45.2778 23.8913 45.3012 23.9009C45.3265 23.9097 45.3453 23.9167 45.3576 23.9217L45.2932 24.0594L44.808 23.8616ZM46.4144 24.5509C46.3243 24.5141 46.2537 24.4623 46.2026 24.3955C46.1521 24.3275 46.1244 24.25 46.1194 24.1632C46.1151 24.0751 46.1358 23.9822 46.1815 23.8843C46.2211 23.7998 46.2772 23.7285 46.35 23.6704C46.4227 23.6124 46.5041 23.5751 46.5942 23.5586C46.686 23.5414 46.7782 23.5516 46.8708 23.5894C46.9227 23.6105 46.9699 23.6384 47.0125 23.673C47.0557 23.7064 47.0891 23.7481 47.1128 23.798C47.1378 23.8484 47.1484 23.9074 47.1447 23.975C47.1423 24.043 47.1201 24.1202 47.0782 24.2067L46.4657 23.97C46.4351 24.0352 46.4158 24.097 46.4075 24.1555C46.4005 24.2145 46.4091 24.2668 46.4332 24.3126C46.4574 24.3584 46.5016 24.3944 46.5658 24.4206C46.5905 24.4306 46.6202 24.4377 46.655 24.4419C46.6911 24.4465 46.7297 24.4457 46.7708 24.4395C46.8138 24.4325 46.8574 24.4179 46.9016 24.3957L46.9493 24.5057C46.8761 24.5492 46.8065 24.5769 46.7406 24.5889C46.6753 24.5997 46.6148 24.6002 46.5591 24.5904C46.5046 24.5812 46.4564 24.568 46.4144 24.5509ZM46.5361 23.8477L46.8769 23.9866C46.8994 23.9353 46.9106 23.8925 46.9106 23.8579C46.9124 23.8227 46.9052 23.7939 46.8892 23.7716C46.8732 23.7493 46.8504 23.732 46.8208 23.72C46.7664 23.6978 46.7148 23.6998 46.6659 23.7258C46.6175 23.7507 46.5742 23.7913 46.5361 23.8477Z" fill="#F2F1EE" fill-opacity="0.99"/>
<path d="M46.5128 29.1203C46.5422 29.0575 46.5765 29.0046 46.6157 28.9616C46.6561 28.9192 46.6993 28.8835 46.7451 28.8547C46.7921 28.8265 46.8402 28.8022 46.8894 28.782C46.9398 28.7623 46.9905 28.7434 47.0416 28.7254C47.1701 28.68 47.2685 28.6316 47.3366 28.5803C47.4059 28.5295 47.4559 28.4715 47.4864 28.4063C47.5045 28.3676 47.517 28.3282 47.5241 28.2879C47.5312 28.2476 47.5271 28.2108 47.5119 28.1772C47.4973 28.1425 47.4662 28.1162 47.4188 28.0983C47.3854 28.0847 47.3515 28.0802 47.317 28.0848C47.2843 28.0888 47.2563 28.0982 47.2331 28.1132C47.2405 28.132 47.2424 28.1515 47.2389 28.1716C47.2366 28.1923 47.2323 28.2092 47.2261 28.2225C47.2199 28.2358 47.2079 28.2504 47.1903 28.2662C47.1731 28.2807 47.1522 28.2909 47.1275 28.2966C47.104 28.3029 47.0768 28.2997 47.0459 28.2871C47.0088 28.2691 46.9856 28.2431 46.9765 28.2092C46.9686 28.1758 46.9729 28.1416 46.9893 28.1066C47.0023 28.0788 47.0247 28.0527 47.0567 28.0284C47.0893 28.0028 47.1296 27.9826 47.1777 27.9677C47.2264 27.9516 47.2797 27.9445 47.3376 27.9466C47.3972 27.9479 47.4598 27.9619 47.5252 27.9885C47.5746 28.0087 47.6206 28.0346 47.6631 28.0663C47.7068 28.0985 47.7428 28.1362 47.7711 28.1794C47.7995 28.2225 47.8152 28.2706 47.8183 28.3237C47.8226 28.3772 47.8099 28.436 47.7799 28.5C47.7658 28.5302 47.7453 28.5599 47.7183 28.5892C47.692 28.6173 47.6546 28.6452 47.6064 28.673C47.5586 28.6996 47.4964 28.7274 47.4195 28.7565C47.3427 28.7856 47.2465 28.8168 47.1309 28.8502C47.0376 28.8769 46.9644 28.906 46.9114 28.9376C46.8584 28.9692 46.8231 28.9959 46.8057 29.0175L47.1644 29.1745C47.1923 29.1873 47.2172 29.1953 47.2392 29.1985C47.263 29.201 47.2845 29.1961 47.3035 29.1837C47.3243 29.1706 47.3426 29.1472 47.3584 29.1134L47.477 29.1617L47.324 29.4509L46.5128 29.1203ZM47.8776 29.7111C47.7973 29.6783 47.7347 29.6377 47.6898 29.5892C47.6448 29.5407 47.6157 29.4914 47.6023 29.4414C47.5908 29.3907 47.5941 29.346 47.6121 29.3074C47.6285 29.2723 47.6543 29.2455 47.6895 29.2268C47.7248 29.208 47.7618 29.2059 47.8006 29.2203C47.8321 29.2316 47.8533 29.2475 47.8644 29.2678C47.876 29.2869 47.8813 29.3071 47.8802 29.3282C47.8792 29.3493 47.8747 29.3684 47.8668 29.3853C47.8623 29.3949 47.8548 29.4063 47.8443 29.4192C47.8356 29.4315 47.8247 29.4422 47.8117 29.4512C47.8116 29.467 47.8171 29.4837 47.828 29.5011C47.8396 29.5173 47.8538 29.5324 47.8707 29.5465C47.8895 29.5599 47.9075 29.5701 47.9248 29.5772C47.9742 29.5973 48.0196 29.6007 48.0611 29.5874C48.1038 29.5746 48.1413 29.5511 48.1735 29.5168C48.2058 29.4825 48.2315 29.4448 48.2507 29.4037C48.2637 29.3759 48.2765 29.3438 48.2892 29.3072C48.3019 29.2707 48.3087 29.2325 48.3097 29.1927C48.312 29.1533 48.3027 29.1165 48.282 29.0822C48.2626 29.0483 48.2269 29.0209 48.1751 28.9997C48.1578 28.9927 48.1363 28.9868 48.1106 28.9821C48.0854 28.9761 48.0564 28.9722 48.0234 28.9703C47.9918 28.9689 47.9578 28.9708 47.9215 28.9762L47.8698 28.8839L48.1454 28.2758L48.6251 28.4714C48.6683 28.489 48.7054 28.4962 48.7363 28.4929C48.769 28.489 48.7972 28.4617 48.821 28.411L48.9377 28.4585L48.7874 28.7467L48.2008 28.5206L48.0499 28.843C48.084 28.8425 48.1239 28.8466 48.1699 28.8552C48.2158 28.8639 48.2573 28.8758 48.2943 28.8909C48.3709 28.9221 48.4325 28.9601 48.4791 29.005C48.5257 29.0499 48.5585 29.0992 48.5775 29.153C48.597 29.2055 48.6038 29.26 48.598 29.3166C48.5939 29.3725 48.5791 29.4276 48.5537 29.4819C48.5102 29.5749 48.45 29.6438 48.3732 29.6887C48.2981 29.7329 48.2168 29.7559 48.1292 29.7576C48.0417 29.7593 47.9578 29.7438 47.8776 29.7111Z" fill="#F2F1EE" fill-opacity="0.99"/>
</g>
<defs>
<clipPath id="clip0_4515_1994">
<rect width="55" height="54" fill="white"/>
</clipPath>
</defs>
</svg>
