<svg width="55" height="54" viewBox="0 0 55 54" fill="none" xmlns="http://www.w3.org/2000/svg">
<line x1="10" y1="24.5" x2="46" y2="24.5" stroke="#474455"/>
<path d="M30.3857 12.2842C31.5651 12.3544 32.5 13.3303 32.5 14.5273V18.5H22.5V14.5273C22.5 13.3307 23.4344 12.3549 24.6133 12.2842C24.654 12.3099 24.7024 12.3404 24.7578 12.374C24.9338 12.4808 25.1812 12.6236 25.4678 12.7666C26.02 13.0421 26.7973 13.3604 27.5 13.3604C28.2027 13.3604 28.98 13.0421 29.5322 12.7666C29.8188 12.6236 30.0662 12.4808 30.2422 12.374C30.2973 12.3406 30.3452 12.3098 30.3857 12.2842Z" stroke="#474455"/>
<circle cx="27.4999" cy="8.91103" r="2.41103" stroke="#474455"/>
<path d="M13.3857 38.2842C14.5651 38.3544 15.5 39.3303 15.5 40.5273V44.5H5.5V40.5273C5.5 39.3307 6.43438 38.3549 7.61328 38.2842C7.65397 38.3099 7.70238 38.3404 7.75781 38.374C7.9338 38.4808 8.18115 38.6236 8.46777 38.7666C9.01999 39.0421 9.79729 39.3604 10.5 39.3604C11.2027 39.3604 11.98 39.0421 12.5322 38.7666C12.8188 38.6236 13.0662 38.4808 13.2422 38.374C13.2973 38.3406 13.3452 38.3098 13.3857 38.2842Z" stroke="#474455"/>
<circle cx="10.4999" cy="34.911" r="2.41103" stroke="#474455"/>
<path d="M30.3857 38.2842C31.5651 38.3544 32.5 39.3303 32.5 40.5273V44.5H22.5V40.5273C22.5 39.3307 23.4344 38.3549 24.6133 38.2842C24.654 38.3099 24.7024 38.3404 24.7578 38.374C24.9338 38.4808 25.1812 38.6236 25.4678 38.7666C26.02 39.0421 26.7973 39.3604 27.5 39.3604C28.2027 39.3604 28.98 39.0421 29.5322 38.7666C29.8188 38.6236 30.0662 38.4808 30.2422 38.374C30.2973 38.3406 30.3452 38.3098 30.3857 38.2842Z" stroke="#474455"/>
<circle cx="27.4999" cy="34.911" r="2.41103" stroke="#474455"/>
<path d="M47.3857 38.2842C48.5651 38.3544 49.5 39.3303 49.5 40.5273V44.5H39.5V40.5273C39.5 39.3307 40.4344 38.3549 41.6133 38.2842C41.654 38.3099 41.7024 38.3404 41.7578 38.374C41.9338 38.4808 42.1812 38.6236 42.4678 38.7666C43.02 39.0421 43.7973 39.3604 44.5 39.3604C45.2027 39.3604 45.98 39.0421 46.5322 38.7666C46.8188 38.6236 47.0662 38.4808 47.2422 38.374C47.2973 38.3406 47.3452 38.3098 47.3857 38.2842Z" stroke="#474455"/>
<circle cx="44.4999" cy="34.911" r="2.41103" stroke="#474455"/>
<line x1="9.5" y1="30" x2="9.5" y2="24" stroke="#474455"/>
<line x1="27.5" y1="30" x2="27.5" y2="21" stroke="#474455"/>
<line x1="45.5" y1="30" x2="45.5" y2="24" stroke="#474455"/>
</svg>
